<mxfile host="65bd71144e">
    <diagram id="71bfLdGrj1ZKqg7d10Lr" name="Positioning - List">
        <mxGraphModel dx="994" dy="718" grid="1" gridSize="10" guides="1" tooltips="1" connect="1" arrows="1" fold="1" page="1" pageScale="1" pageWidth="1654" pageHeight="1169" math="0" shadow="0">
            <root>
                <mxCell id="0"/>
                <mxCell id="1" parent="0"/>
                <mxCell id="14" value="" style="verticalLabelPosition=bottom;verticalAlign=top;html=1;shape=mxgraph.basic.rect;fillColor2=none;strokeWidth=1;size=20;indent=5;shadow=0;dashed=1;" parent="1" vertex="1">
                    <mxGeometry x="200" y="80" width="160" height="200" as="geometry"/>
                </mxCell>
                <mxCell id="3" value="" style="verticalLabelPosition=bottom;verticalAlign=top;html=1;shape=mxgraph.basic.rect;fillColor2=none;strokeWidth=1;size=20;indent=5;shadow=0;" parent="1" vertex="1">
                    <mxGeometry x="200" y="280" width="160" height="440" as="geometry"/>
                </mxCell>
                <mxCell id="9" value="" style="endArrow=classic;startArrow=classic;html=1;fillColor=#e51400;strokeColor=#00FF00;" parent="1" edge="1">
                    <mxGeometry width="50" height="50" relative="1" as="geometry">
                        <mxPoint x="380" y="720" as="sourcePoint"/>
                        <mxPoint x="380" y="280" as="targetPoint"/>
                    </mxGeometry>
                </mxCell>
                <mxCell id="9W-NR-HnAmuJLKMoazV8-47" value="" style="edgeStyle=orthogonalEdgeStyle;rounded=0;orthogonalLoop=1;jettySize=auto;html=1;startArrow=none;startFill=0;" parent="1" source="11" target="9W-NR-HnAmuJLKMoazV8-46" edge="1">
                    <mxGeometry relative="1" as="geometry"/>
                </mxCell>
                <mxCell id="11" value="&lt;font style=&quot;font-size: 16px&quot;&gt;&lt;b&gt;&lt;font color=&quot;#3399ff&quot;&gt;clientHeight&lt;/font&gt;&lt;/b&gt;&lt;br&gt;&lt;/font&gt;" style="text;html=1;strokeColor=none;fillColor=none;align=left;verticalAlign=middle;whiteSpace=wrap;rounded=0;shadow=0;sketch=1;" parent="1" vertex="1">
                    <mxGeometry x="370" y="490" width="100" height="20" as="geometry"/>
                </mxCell>
                <mxCell id="15" value="" style="verticalLabelPosition=bottom;verticalAlign=top;html=1;shape=mxgraph.basic.rect;fillColor2=none;strokeWidth=1;size=20;indent=5;shadow=0;dashed=1;" parent="1" vertex="1">
                    <mxGeometry x="200" y="720" width="160" height="200" as="geometry"/>
                </mxCell>
                <mxCell id="18" value="" style="endArrow=classic;startArrow=classic;html=1;fillColor=#e51400;strokeColor=#00FF00;" parent="1" edge="1">
                    <mxGeometry width="50" height="50" relative="1" as="geometry">
                        <mxPoint x="180" y="920" as="sourcePoint"/>
                        <mxPoint x="180" y="80" as="targetPoint"/>
                    </mxGeometry>
                </mxCell>
                <mxCell id="19" value="&lt;font style=&quot;font-size: 16px&quot;&gt;&lt;b&gt;&lt;font color=&quot;#3399ff&quot;&gt;scrollHeight&lt;/font&gt;&lt;/b&gt;&lt;br&gt;&lt;/font&gt;" style="text;html=1;strokeColor=none;fillColor=none;align=right;verticalAlign=middle;whiteSpace=wrap;rounded=0;shadow=0;sketch=1;" parent="1" vertex="1">
                    <mxGeometry x="90" y="490" width="100" height="20" as="geometry"/>
                </mxCell>
                <mxCell id="24" value="" style="verticalLabelPosition=bottom;shadow=0;dashed=0;align=center;html=1;verticalAlign=top;strokeWidth=1;shape=mxgraph.mockup.navigation.scrollBar;strokeColor=#999999;barPos=46.765;fillColor2=#99ddff;strokeColor2=none;direction=north;rounded=1;sketch=1;gradientColor=none;" parent="1" vertex="1">
                    <mxGeometry x="340" y="280" width="20" height="440" as="geometry"/>
                </mxCell>
                <mxCell id="25" value="&lt;font color=&quot;#ffffff&quot;&gt;Scrollable Container&lt;/font&gt;" style="strokeWidth=1;shadow=0;dashed=0;align=center;html=1;shape=mxgraph.mockup.text.callout;linkText=;textSize=17;textColor=#666666;callDir=NW;callStyle=line;fontSize=17;fontColor=#666666;align=left;verticalAlign=top;rounded=1;sketch=1;gradientColor=none;strokeColor=#999999;" parent="1" vertex="1">
                    <mxGeometry x="30" y="280" width="190" height="50" as="geometry"/>
                </mxCell>
                <mxCell id="27" value="&lt;font color=&quot;#ffffff&quot;&gt;PaddingBottom&lt;/font&gt;" style="strokeWidth=1;shadow=0;dashed=0;align=center;html=1;shape=mxgraph.mockup.text.callout;linkText=;textSize=17;textColor=#666666;callDir=NW;callStyle=line;fontSize=17;fontColor=#666666;align=left;verticalAlign=top;rounded=1;sketch=1;gradientColor=none;strokeColor=#999999;" parent="1" vertex="1">
                    <mxGeometry x="30" y="852" width="190" height="50" as="geometry"/>
                </mxCell>
                <mxCell id="29" value="&lt;font color=&quot;#ffffff&quot;&gt;Scrollbar&lt;/font&gt;" style="strokeWidth=1;shadow=0;dashed=0;align=center;html=1;shape=mxgraph.mockup.text.callout;linkText=;textSize=17;textColor=#666666;callDir=NE;callStyle=line;fontSize=17;fontColor=#666666;align=right;verticalAlign=top;rounded=1;sketch=1;gradientColor=none;strokeColor=#999999;" parent="1" vertex="1">
                    <mxGeometry x="350" y="280" width="190" height="50" as="geometry"/>
                </mxCell>
                <mxCell id="31" value="&lt;font color=&quot;#ffffff&quot;&gt;PaddingTop&lt;/font&gt;" style="strokeWidth=1;shadow=0;dashed=0;align=center;html=1;shape=mxgraph.mockup.text.callout;linkText=;textSize=17;textColor=#666666;callDir=NW;callStyle=line;fontSize=17;fontColor=#666666;align=left;verticalAlign=top;rounded=1;sketch=1;gradientColor=none;strokeColor=#999999;" parent="1" vertex="1">
                    <mxGeometry x="30" y="80" width="190" height="50" as="geometry"/>
                </mxCell>
                <mxCell id="32" value="" style="endArrow=classic;startArrow=classic;html=1;fillColor=#e51400;strokeColor=#00FF00;" parent="1" edge="1">
                    <mxGeometry width="50" height="50" relative="1" as="geometry">
                        <mxPoint x="380" y="280" as="sourcePoint"/>
                        <mxPoint x="380" y="80" as="targetPoint"/>
                    </mxGeometry>
                </mxCell>
                <mxCell id="33" value="&lt;font style=&quot;font-size: 16px&quot;&gt;&lt;font color=&quot;#ffffff&quot;&gt;Interaction Zone Offset&lt;/font&gt;&lt;br&gt;&lt;font color=&quot;#3399ff&quot; style=&quot;font-weight: bold&quot;&gt;scrollTop&lt;/font&gt;&lt;br&gt;&lt;/font&gt;" style="text;html=1;strokeColor=none;fillColor=none;align=left;verticalAlign=middle;whiteSpace=wrap;rounded=0;shadow=0;sketch=1;" parent="1" vertex="1">
                    <mxGeometry x="370" y="160" width="170" height="40" as="geometry"/>
                </mxCell>
                <mxCell id="36" value="&lt;font style=&quot;font-size: 16px&quot;&gt;&lt;b style=&quot;color: rgb(51 , 153 , 255)&quot;&gt;scrollHeight - scrollTop - clientHeight&lt;/b&gt;&lt;br&gt;&lt;/font&gt;" style="text;html=1;strokeColor=none;fillColor=none;align=left;verticalAlign=middle;whiteSpace=wrap;rounded=0;shadow=0;sketch=1;" parent="1" vertex="1">
                    <mxGeometry x="370" y="832" width="290" height="20" as="geometry"/>
                </mxCell>
                <mxCell id="37" value="" style="endArrow=classic;startArrow=classic;html=1;fillColor=#e51400;strokeColor=#00FF00;" parent="1" edge="1">
                    <mxGeometry width="50" height="50" relative="1" as="geometry">
                        <mxPoint x="380" y="920" as="sourcePoint"/>
                        <mxPoint x="380" y="720" as="targetPoint"/>
                    </mxGeometry>
                </mxCell>
                <mxCell id="38" value="" style="endArrow=classic;html=1;fillColor=#008a00;strokeColor=#00FF00;" parent="1" edge="1">
                    <mxGeometry width="50" height="50" relative="1" as="geometry">
                        <mxPoint x="200" y="80" as="sourcePoint"/>
                        <mxPoint x="200" y="120" as="targetPoint"/>
                    </mxGeometry>
                </mxCell>
                <mxCell id="39" value="&lt;font style=&quot;font-size: 16px&quot;&gt;Y&lt;sub&gt;1&lt;/sub&gt;&lt;br&gt;&lt;/font&gt;" style="text;html=1;strokeColor=none;fillColor=none;align=center;verticalAlign=middle;whiteSpace=wrap;rounded=0;shadow=0;sketch=1;fontColor=#00FF00;fontStyle=0" parent="1" vertex="1">
                    <mxGeometry x="200" y="90" width="20" height="20" as="geometry"/>
                </mxCell>
                <mxCell id="45" value="" style="edgeStyle=orthogonalEdgeStyle;rounded=0;orthogonalLoop=1;jettySize=auto;html=1;" parent="1" source="9W-NR-HnAmuJLKMoazV8-46" target="44" edge="1">
                    <mxGeometry relative="1" as="geometry"/>
                </mxCell>
                <mxCell id="9W-NR-HnAmuJLKMoazV8-46" value="&lt;font style=&quot;font-size: 16px&quot;&gt;&lt;font color=&quot;#ffffff&quot;&gt;View Range (X&lt;sub&gt;0&lt;/sub&gt;, Y&lt;sub&gt;0&lt;/sub&gt;)&lt;/font&gt;&lt;br&gt;&lt;font color=&quot;#3399ff&quot; style=&quot;font-weight: bold&quot;&gt;top: 0&lt;/font&gt;&lt;b&gt;&lt;font color=&quot;#3399ff&quot;&gt;&lt;br&gt;&lt;/font&gt;&lt;/b&gt;&lt;b&gt;&lt;font color=&quot;#3399ff&quot;&gt;bottom: top +&amp;nbsp;&lt;/font&gt;&lt;/b&gt;&lt;b&gt;&lt;font color=&quot;#3399ff&quot;&gt;clientHeight&lt;/font&gt;&lt;/b&gt;&lt;b&gt;&lt;font color=&quot;#3399ff&quot;&gt;&lt;br&gt;&lt;/font&gt;&lt;/b&gt;&lt;/font&gt;" style="text;html=1;strokeColor=none;fillColor=none;align=left;verticalAlign=middle;whiteSpace=wrap;rounded=0;shadow=0;sketch=1;" parent="1" vertex="1">
                    <mxGeometry x="520" y="470" width="210" height="60" as="geometry"/>
                </mxCell>
                <mxCell id="awMgp3LH0-ffbOGHoWqr-46" value="" style="verticalLabelPosition=bottom;verticalAlign=top;html=1;shape=mxgraph.basic.rect;fillColor2=none;strokeWidth=1;size=20;indent=5;shadow=0;dashed=1;dashPattern=1 4;fillColor=#f0a30a;fontColor=#000000;strokeColor=none;opacity=75;" parent="1" vertex="1">
                    <mxGeometry x="200" y="210" width="160" height="70" as="geometry"/>
                </mxCell>
                <mxCell id="42" value="&lt;font style=&quot;font-size: 16px&quot;&gt;X&lt;sub&gt;1&lt;/sub&gt;&lt;br&gt;&lt;/font&gt;" style="text;html=1;strokeColor=none;fillColor=none;align=center;verticalAlign=middle;whiteSpace=wrap;rounded=0;shadow=0;sketch=1;fontStyle=0;fontColor=#B20000;" parent="1" vertex="1">
                    <mxGeometry x="210" y="60" width="20" height="20" as="geometry"/>
                </mxCell>
                <mxCell id="43" value="" style="endArrow=classic;html=1;fillColor=#e51400;strokeColor=#B20000;" parent="1" edge="1">
                    <mxGeometry width="50" height="50" relative="1" as="geometry">
                        <mxPoint x="200" y="79.89" as="sourcePoint"/>
                        <mxPoint x="240" y="79.89" as="targetPoint"/>
                    </mxGeometry>
                </mxCell>
                <mxCell id="awMgp3LH0-ffbOGHoWqr-51" value="" style="edgeStyle=orthogonalEdgeStyle;rounded=0;orthogonalLoop=1;jettySize=auto;html=1;fontSize=16;fontColor=#FFFFFF;startArrow=none;startFill=0;" parent="1" source="awMgp3LH0-ffbOGHoWqr-47" target="awMgp3LH0-ffbOGHoWqr-50" edge="1">
                    <mxGeometry relative="1" as="geometry"/>
                </mxCell>
                <mxCell id="awMgp3LH0-ffbOGHoWqr-47" value="&lt;font color=&quot;#ffffff&quot;&gt;Leading-Buffer Zone&lt;/font&gt;" style="strokeWidth=1;shadow=0;dashed=0;align=center;html=1;shape=mxgraph.mockup.text.callout;linkText=;textSize=17;textColor=#666666;callDir=NE;callStyle=line;fontSize=17;fontColor=#666666;align=right;verticalAlign=top;rounded=1;sketch=1;gradientColor=none;strokeColor=#999999;" parent="1" vertex="1">
                    <mxGeometry x="350" y="220" width="190" height="50" as="geometry"/>
                </mxCell>
                <mxCell id="awMgp3LH0-ffbOGHoWqr-48" value="" style="verticalLabelPosition=bottom;verticalAlign=top;html=1;shape=mxgraph.basic.rect;fillColor2=none;strokeWidth=1;size=20;indent=5;shadow=0;dashed=1;dashPattern=1 4;fillColor=#f0a30a;fontColor=#000000;strokeColor=none;opacity=75;" parent="1" vertex="1">
                    <mxGeometry x="200" y="720" width="160" height="70" as="geometry"/>
                </mxCell>
                <mxCell id="awMgp3LH0-ffbOGHoWqr-53" value="" style="edgeStyle=orthogonalEdgeStyle;rounded=0;orthogonalLoop=1;jettySize=auto;html=1;fontSize=16;fontColor=#FFFFFF;startArrow=none;startFill=0;" parent="1" source="awMgp3LH0-ffbOGHoWqr-49" target="awMgp3LH0-ffbOGHoWqr-52" edge="1">
                    <mxGeometry relative="1" as="geometry"/>
                </mxCell>
                <mxCell id="awMgp3LH0-ffbOGHoWqr-49" value="&lt;font color=&quot;#ffffff&quot;&gt;Trailing-Buffer Zone&lt;/font&gt;" style="strokeWidth=1;shadow=0;dashed=0;align=center;html=1;shape=mxgraph.mockup.text.callout;linkText=;textSize=17;textColor=#666666;callDir=NE;callStyle=line;fontSize=17;fontColor=#666666;align=right;verticalAlign=top;rounded=1;sketch=1;gradientColor=none;strokeColor=#999999;" parent="1" vertex="1">
                    <mxGeometry x="350" y="710" width="190" height="50" as="geometry"/>
                </mxCell>
                <mxCell id="mHfsbKkbzHinj7nV98gO-46" value="" style="edgeStyle=orthogonalEdgeStyle;rounded=0;orthogonalLoop=1;jettySize=auto;html=1;fontSize=16;fontColor=#FFFFFF;startArrow=none;startFill=0;" parent="1" source="awMgp3LH0-ffbOGHoWqr-50" target="mHfsbKkbzHinj7nV98gO-45" edge="1">
                    <mxGeometry relative="1" as="geometry"/>
                </mxCell>
                <mxCell id="VKP4-nB7G2HZ9-OO-fLL-50" style="edgeStyle=orthogonalEdgeStyle;rounded=0;orthogonalLoop=1;jettySize=auto;html=1;exitX=0.5;exitY=1;exitDx=0;exitDy=0;entryX=0.5;entryY=0;entryDx=0;entryDy=0;startArrow=none;startFill=0;endArrow=classic;endFill=1;" parent="1" source="awMgp3LH0-ffbOGHoWqr-50" target="44" edge="1">
                    <mxGeometry relative="1" as="geometry"/>
                </mxCell>
                <mxCell id="awMgp3LH0-ffbOGHoWqr-50" value="&lt;font style=&quot;font-size: 16px&quot;&gt;&lt;span style=&quot;color: rgb(255 , 255 , 255)&quot;&gt;Leading Buffer Zone (X&lt;/span&gt;&lt;sub style=&quot;color: rgb(255 , 255 , 255)&quot;&gt;0&lt;/sub&gt;&lt;span style=&quot;color: rgb(255 , 255 , 255)&quot;&gt;, Y&lt;/span&gt;&lt;sub style=&quot;color: rgb(255 , 255 , 255)&quot;&gt;0&lt;/sub&gt;&lt;span style=&quot;color: rgb(255 , 255 , 255)&quot;&gt;)&lt;/span&gt;&lt;b&gt;&lt;font color=&quot;#3399ff&quot;&gt;&lt;br&gt;top: -leadingBufferZoneHeight&lt;br&gt;&lt;/font&gt;&lt;/b&gt;&lt;b&gt;&lt;font color=&quot;#3399ff&quot;&gt;bottom: 0&lt;br&gt;&lt;/font&gt;&lt;/b&gt;&lt;/font&gt;" style="text;html=1;strokeColor=none;fillColor=none;align=left;verticalAlign=middle;whiteSpace=wrap;rounded=0;shadow=0;sketch=1;" parent="1" vertex="1">
                    <mxGeometry x="568.5" y="215" width="301.5" height="60" as="geometry"/>
                </mxCell>
                <mxCell id="mHfsbKkbzHinj7nV98gO-49" value="" style="edgeStyle=orthogonalEdgeStyle;rounded=0;orthogonalLoop=1;jettySize=auto;html=1;fontSize=16;fontColor=#FFFFFF;startArrow=none;startFill=0;" parent="1" source="awMgp3LH0-ffbOGHoWqr-52" target="mHfsbKkbzHinj7nV98gO-48" edge="1">
                    <mxGeometry relative="1" as="geometry"/>
                </mxCell>
                <mxCell id="VKP4-nB7G2HZ9-OO-fLL-49" style="edgeStyle=orthogonalEdgeStyle;rounded=0;orthogonalLoop=1;jettySize=auto;html=1;exitX=0.5;exitY=0;exitDx=0;exitDy=0;startArrow=none;startFill=0;" parent="1" source="awMgp3LH0-ffbOGHoWqr-52" target="44" edge="1">
                    <mxGeometry relative="1" as="geometry"/>
                </mxCell>
                <mxCell id="awMgp3LH0-ffbOGHoWqr-52" value="&lt;font style=&quot;font-size: 16px&quot;&gt;&lt;span style=&quot;color: rgb(255 , 255 , 255)&quot;&gt;Trailing Buffer Zone (X&lt;/span&gt;&lt;sub style=&quot;color: rgb(255 , 255 , 255)&quot;&gt;0&lt;/sub&gt;&lt;span style=&quot;color: rgb(255 , 255 , 255)&quot;&gt;, Y&lt;/span&gt;&lt;sub style=&quot;color: rgb(255 , 255 , 255)&quot;&gt;0&lt;/sub&gt;&lt;span style=&quot;color: rgb(255 , 255 , 255)&quot;&gt;)&lt;/span&gt;&lt;b&gt;&lt;font color=&quot;#3399ff&quot;&gt;&lt;br&gt;top: viewRangeBottom&lt;br&gt;&lt;/font&gt;&lt;/b&gt;&lt;b&gt;&lt;font color=&quot;#3399ff&quot;&gt;bottom:&lt;/font&gt;&lt;/b&gt;&lt;b&gt;&lt;font color=&quot;#3399ff&quot;&gt;&amp;nbsp;top + trailingBufferZoneHeight&lt;/font&gt;&lt;/b&gt;&lt;b&gt;&lt;font color=&quot;#3399ff&quot;&gt;&lt;br&gt;&lt;/font&gt;&lt;/b&gt;&lt;/font&gt;" style="text;html=1;strokeColor=none;fillColor=none;align=left;verticalAlign=middle;whiteSpace=wrap;rounded=0;shadow=0;sketch=1;" parent="1" vertex="1">
                    <mxGeometry x="570" y="705" width="300" height="60" as="geometry"/>
                </mxCell>
                <mxCell id="A2cyWFAXMeHcMfhjoc7N-47" style="edgeStyle=orthogonalEdgeStyle;rounded=0;orthogonalLoop=1;jettySize=auto;html=1;exitX=1;exitY=0.5;exitDx=0;exitDy=0;entryX=0.5;entryY=0;entryDx=0;entryDy=0;startArrow=none;startFill=0;endArrow=classic;endFill=1;" parent="1" source="mHfsbKkbzHinj7nV98gO-45" target="VKP4-nB7G2HZ9-OO-fLL-51" edge="1">
                    <mxGeometry relative="1" as="geometry"/>
                </mxCell>
                <mxCell id="mHfsbKkbzHinj7nV98gO-45" value="&lt;font style=&quot;font-size: 16px&quot;&gt;Render Range Top&amp;nbsp;&lt;span style=&quot;color: rgb(255 , 255 , 255)&quot;&gt;(X&lt;/span&gt;&lt;sub style=&quot;color: rgb(255 , 255 , 255)&quot;&gt;0&lt;/sub&gt;&lt;span style=&quot;color: rgb(255 , 255 , 255)&quot;&gt;, Y&lt;/span&gt;&lt;sub style=&quot;color: rgb(255 , 255 , 255)&quot;&gt;0&lt;/sub&gt;&lt;span style=&quot;color: rgb(255 , 255 , 255)&quot;&gt;)&lt;/span&gt;&lt;br&gt;&lt;b&gt;&lt;font color=&quot;#3399ff&quot;&gt;leadingBufferZoneTop&lt;/font&gt;&lt;/b&gt;&lt;b&gt;&lt;br&gt;&lt;/b&gt;&lt;/font&gt;" style="text;html=1;strokeColor=none;fillColor=none;align=left;verticalAlign=middle;whiteSpace=wrap;rounded=0;shadow=0;sketch=1;" parent="1" vertex="1">
                    <mxGeometry x="910" y="225" width="210" height="40" as="geometry"/>
                </mxCell>
                <mxCell id="A2cyWFAXMeHcMfhjoc7N-48" style="edgeStyle=orthogonalEdgeStyle;rounded=0;orthogonalLoop=1;jettySize=auto;html=1;exitX=1;exitY=0.5;exitDx=0;exitDy=0;entryX=0.5;entryY=1;entryDx=0;entryDy=0;startArrow=none;startFill=0;endArrow=classic;endFill=1;" parent="1" source="mHfsbKkbzHinj7nV98gO-48" target="VKP4-nB7G2HZ9-OO-fLL-51" edge="1">
                    <mxGeometry relative="1" as="geometry"/>
                </mxCell>
                <mxCell id="mHfsbKkbzHinj7nV98gO-48" value="&lt;font style=&quot;font-size: 16px&quot;&gt;Render Range Bottom &lt;span style=&quot;color: rgb(255 , 255 , 255)&quot;&gt;(X&lt;/span&gt;&lt;sub style=&quot;color: rgb(255 , 255 , 255)&quot;&gt;0&lt;/sub&gt;&lt;span style=&quot;color: rgb(255 , 255 , 255)&quot;&gt;, Y&lt;/span&gt;&lt;sub style=&quot;color: rgb(255 , 255 , 255)&quot;&gt;0&lt;/sub&gt;&lt;span style=&quot;color: rgb(255 , 255 , 255)&quot;&gt;)&lt;/span&gt;&lt;br&gt;&lt;b&gt;&lt;font color=&quot;#3399ff&quot;&gt;trailingBufferZoneBottom&lt;/font&gt;&lt;/b&gt;&lt;b&gt;&lt;br&gt;&lt;/b&gt;&lt;/font&gt;" style="text;html=1;strokeColor=none;fillColor=none;align=left;verticalAlign=middle;whiteSpace=wrap;rounded=0;shadow=0;sketch=1;" parent="1" vertex="1">
                    <mxGeometry x="910" y="715" width="233" height="40" as="geometry"/>
                </mxCell>
                <mxCell id="sevN6PIGC7rusc75OdBh-43" value="&lt;span style=&quot;color: rgb(255 , 255 , 255) ; font-family: &amp;#34;helvetica&amp;#34; ; font-size: 17px ; font-style: normal ; font-weight: 400 ; letter-spacing: normal ; text-align: left ; text-indent: 0px ; text-transform: none ; word-spacing: 0px ; background-color: rgb(42 , 42 , 42) ; display: inline ; float: none&quot;&gt;Render-Range Bottom&lt;/span&gt;" style="text;whiteSpace=wrap;html=1;" parent="1" vertex="1">
                    <mxGeometry x="80" y="790" width="180" height="30" as="geometry"/>
                </mxCell>
                <mxCell id="sevN6PIGC7rusc75OdBh-44" value="" style="endArrow=none;html=1;fontStyle=1;fillColor=#e51400;strokeColor=#B20000;strokeWidth=2;entryX=1.006;entryY=-0.014;entryDx=0;entryDy=0;entryPerimeter=0;" parent="1" edge="1">
                    <mxGeometry width="50" height="50" relative="1" as="geometry">
                        <mxPoint x="80" y="790" as="sourcePoint"/>
                        <mxPoint x="360.96000000000004" y="790.02" as="targetPoint"/>
                    </mxGeometry>
                </mxCell>
                <mxCell id="2xAaMhtdRNzGYp30kyck-43" value="" style="endArrow=none;html=1;fontStyle=1;fillColor=#e51400;strokeColor=#B20000;strokeWidth=2;entryX=1.006;entryY=-0.014;entryDx=0;entryDy=0;entryPerimeter=0;" parent="1" edge="1">
                    <mxGeometry width="50" height="50" relative="1" as="geometry">
                        <mxPoint x="80" y="209" as="sourcePoint"/>
                        <mxPoint x="360.96000000000004" y="209.01999999999998" as="targetPoint"/>
                    </mxGeometry>
                </mxCell>
                <mxCell id="2xAaMhtdRNzGYp30kyck-44" value="&lt;span style=&quot;color: rgb(255 , 255 , 255) ; font-family: &amp;#34;helvetica&amp;#34; ; font-size: 17px ; font-style: normal ; font-weight: 400 ; letter-spacing: normal ; text-align: left ; text-indent: 0px ; text-transform: none ; word-spacing: 0px ; background-color: rgb(42 , 42 , 42) ; display: inline ; float: none&quot;&gt;Render-Range Top&lt;/span&gt;" style="text;whiteSpace=wrap;html=1;" parent="1" vertex="1">
                    <mxGeometry x="80" y="180" width="150" height="30" as="geometry"/>
                </mxCell>
                <mxCell id="VKP4-nB7G2HZ9-OO-fLL-52" value="" style="edgeStyle=orthogonalEdgeStyle;rounded=0;orthogonalLoop=1;jettySize=auto;html=1;startArrow=none;startFill=0;endArrow=classic;endFill=1;" parent="1" source="44" target="VKP4-nB7G2HZ9-OO-fLL-51" edge="1">
                    <mxGeometry relative="1" as="geometry"/>
                </mxCell>
                <mxCell id="44" value="&lt;font style=&quot;font-size: 16px&quot;&gt;Render Range (&lt;span style=&quot;color: rgb(255 , 255 , 255)&quot;&gt;X&lt;/span&gt;&lt;sub style=&quot;color: rgb(255 , 255 , 255)&quot;&gt;0&lt;/sub&gt;&lt;span style=&quot;color: rgb(255 , 255 , 255)&quot;&gt;, Y&lt;/span&gt;&lt;sub style=&quot;color: rgb(255 , 255 , 255)&quot;&gt;0&lt;/sub&gt;)&lt;br&gt;&lt;b&gt;&lt;font color=&quot;#3399ff&quot;&gt;top: leadingBufferZoneTop&lt;/font&gt;&lt;/b&gt;&lt;b&gt;&lt;font color=&quot;#3399ff&quot;&gt;&lt;br&gt;&lt;/font&gt;&lt;/b&gt;&lt;b&gt;&lt;font color=&quot;#3399ff&quot;&gt;bottom: trailingBufferZoneBottom&lt;/font&gt;&lt;/b&gt;&lt;b&gt;&lt;font color=&quot;#3399ff&quot;&gt;&lt;br&gt;&lt;/font&gt;&lt;/b&gt;&lt;/font&gt;" style="text;html=1;strokeColor=none;fillColor=none;align=left;verticalAlign=middle;whiteSpace=wrap;rounded=0;shadow=0;sketch=1;" parent="1" vertex="1">
                    <mxGeometry x="774.5" y="470" width="265.5" height="60" as="geometry"/>
                </mxCell>
                <mxCell id="oqruHQadwdI72dp4TP18-45" value="&lt;font color=&quot;#ffffff&quot;&gt;Interaction Zone&lt;/font&gt;" style="strokeWidth=1;shadow=0;dashed=0;align=center;html=1;shape=mxgraph.mockup.text.callout;linkText=;textSize=17;textColor=#666666;callDir=NE;callStyle=line;fontSize=17;fontColor=#666666;align=right;verticalAlign=top;rounded=1;sketch=1;gradientColor=none;strokeColor=#999999;" parent="1" vertex="1">
                    <mxGeometry x="300" y="360" width="240" height="50" as="geometry"/>
                </mxCell>
                <mxCell id="3ck1LxKsiUsy932mhsva-45" value="" style="endArrow=classic;startArrow=classic;html=1;fillColor=#e51400;strokeColor=#00FF00;" parent="1" edge="1">
                    <mxGeometry width="50" height="50" relative="1" as="geometry">
                        <mxPoint x="279.4099999999998" y="790" as="sourcePoint"/>
                        <mxPoint x="279.41" y="210" as="targetPoint"/>
                    </mxGeometry>
                </mxCell>
                <mxCell id="L4N7W98tZ1Qv9_P3v_8--45" value="&lt;font style=&quot;font-size: 16px&quot;&gt;Render Range&lt;br&gt;&lt;/font&gt;" style="text;html=1;strokeColor=none;fillColor=none;align=left;verticalAlign=middle;whiteSpace=wrap;rounded=0;shadow=0;sketch=1;" parent="1" vertex="1">
                    <mxGeometry x="223" y="490" width="107" height="20" as="geometry"/>
                </mxCell>
                <mxCell id="VKP4-nB7G2HZ9-OO-fLL-45" value="" style="endArrow=classic;html=1;fillColor=#008a00;strokeColor=#00FF00;" parent="1" edge="1">
                    <mxGeometry width="50" height="50" relative="1" as="geometry">
                        <mxPoint x="199.99999999999977" y="280" as="sourcePoint"/>
                        <mxPoint x="199.99999999999977" y="320" as="targetPoint"/>
                    </mxGeometry>
                </mxCell>
                <mxCell id="VKP4-nB7G2HZ9-OO-fLL-46" value="&lt;font style=&quot;font-size: 16px&quot;&gt;Y&lt;sub&gt;0&lt;/sub&gt;&lt;br&gt;&lt;/font&gt;" style="text;html=1;strokeColor=none;fillColor=none;align=center;verticalAlign=middle;whiteSpace=wrap;rounded=0;shadow=0;sketch=1;fontColor=#00FF00;fontStyle=0" parent="1" vertex="1">
                    <mxGeometry x="200" y="290" width="20" height="20" as="geometry"/>
                </mxCell>
                <mxCell id="VKP4-nB7G2HZ9-OO-fLL-47" value="&lt;font style=&quot;font-size: 16px&quot;&gt;X&lt;sub&gt;0&lt;/sub&gt;&lt;br&gt;&lt;/font&gt;" style="text;html=1;strokeColor=none;fillColor=none;align=center;verticalAlign=middle;whiteSpace=wrap;rounded=0;shadow=0;sketch=1;fontStyle=0;fontColor=#B20000;" parent="1" vertex="1">
                    <mxGeometry x="210" y="260" width="20" height="20" as="geometry"/>
                </mxCell>
                <mxCell id="VKP4-nB7G2HZ9-OO-fLL-48" value="" style="endArrow=classic;html=1;fillColor=#e51400;strokeColor=#B20000;" parent="1" edge="1">
                    <mxGeometry width="50" height="50" relative="1" as="geometry">
                        <mxPoint x="199.99999999999977" y="279.89" as="sourcePoint"/>
                        <mxPoint x="239.99999999999977" y="279.89" as="targetPoint"/>
                    </mxGeometry>
                </mxCell>
                <mxCell id="VKP4-nB7G2HZ9-OO-fLL-51" value="&lt;font style=&quot;font-size: 16px&quot;&gt;Offset Render Range&amp;nbsp;&lt;span style=&quot;color: rgb(255 , 255 , 255)&quot;&gt;(X&lt;/span&gt;&lt;sub style=&quot;color: rgb(255 , 255 , 255)&quot;&gt;1&lt;/sub&gt;&lt;span style=&quot;color: rgb(255 , 255 , 255)&quot;&gt;, Y&lt;/span&gt;&lt;sub style=&quot;color: rgb(255 , 255 , 255)&quot;&gt;1&lt;/sub&gt;&lt;span style=&quot;color: rgb(255 , 255 , 255)&quot;&gt;)&lt;/span&gt;&lt;br&gt;&lt;b&gt;&lt;font color=&quot;#3399ff&quot;&gt;top: leadingBufferZoneTop + scrollTop&lt;br&gt;&lt;/font&gt;&lt;/b&gt;&lt;b&gt;&lt;font color=&quot;#3399ff&quot;&gt;bottom: trailingBufferZoneBottom + scrollTop&lt;/font&gt;&lt;/b&gt;&lt;b&gt;&lt;font color=&quot;#3399ff&quot;&gt;&lt;br&gt;&lt;/font&gt;&lt;/b&gt;&lt;b&gt;&lt;font color=&quot;#b20000&quot;&gt;Leading unmount condition: itemBottom &amp;lt;= top&lt;br&gt;&lt;/font&gt;&lt;/b&gt;&lt;b&gt;&lt;font color=&quot;#b20000&quot;&gt;Trailing unmount condition: itemTop &amp;gt;= bottom&lt;/font&gt;&lt;/b&gt;&lt;b&gt;&lt;br&gt;&lt;/b&gt;&lt;/font&gt;" style="text;html=1;strokeColor=none;fillColor=none;align=left;verticalAlign=middle;whiteSpace=wrap;rounded=0;shadow=0;sketch=1;" parent="1" vertex="1">
                    <mxGeometry x="1080" y="450" width="370" height="100" as="geometry"/>
                </mxCell>
            </root>
        </mxGraphModel>
    </diagram>
    <diagram name="Positioning - Item" id="mRb-aR9qY3JvO1UBsOba">
        <mxGraphModel dx="994" dy="718" grid="1" gridSize="10" guides="1" tooltips="1" connect="1" arrows="1" fold="1" page="1" pageScale="1" pageWidth="1654" pageHeight="1169" math="0" shadow="0">
            <root>
                <mxCell id="FjcG_EZS6peZCFK7HGRu-0"/>
                <mxCell id="FjcG_EZS6peZCFK7HGRu-1" parent="FjcG_EZS6peZCFK7HGRu-0"/>
                <mxCell id="FjcG_EZS6peZCFK7HGRu-2" value="" style="verticalLabelPosition=bottom;verticalAlign=top;html=1;shape=mxgraph.basic.rect;fillColor2=none;strokeWidth=1;size=20;indent=5;shadow=0;" parent="FjcG_EZS6peZCFK7HGRu-1" vertex="1">
                    <mxGeometry x="200" y="280" width="160" height="440" as="geometry"/>
                </mxCell>
                <mxCell id="FjcG_EZS6peZCFK7HGRu-5" value="" style="verticalLabelPosition=bottom;verticalAlign=top;html=1;shape=mxgraph.basic.rect;fillColor2=none;strokeWidth=1;size=20;indent=5;shadow=0;dashed=1;" parent="FjcG_EZS6peZCFK7HGRu-1" vertex="1">
                    <mxGeometry x="200" y="80" width="160" height="200" as="geometry"/>
                </mxCell>
                <mxCell id="FjcG_EZS6peZCFK7HGRu-6" value="" style="verticalLabelPosition=bottom;verticalAlign=top;html=1;shape=mxgraph.basic.rect;fillColor2=none;strokeWidth=1;size=20;indent=5;shadow=0;dashed=1;" parent="FjcG_EZS6peZCFK7HGRu-1" vertex="1">
                    <mxGeometry x="200" y="720" width="160" height="200" as="geometry"/>
                </mxCell>
                <mxCell id="FjcG_EZS6peZCFK7HGRu-9" value="" style="verticalLabelPosition=bottom;shadow=0;dashed=0;align=center;html=1;verticalAlign=top;strokeWidth=1;shape=mxgraph.mockup.navigation.scrollBar;strokeColor=#999999;barPos=46.765;fillColor2=#99ddff;strokeColor2=none;direction=north;rounded=1;sketch=1;gradientColor=none;" parent="FjcG_EZS6peZCFK7HGRu-1" vertex="1">
                    <mxGeometry x="340" y="280" width="20" height="440" as="geometry"/>
                </mxCell>
                <mxCell id="UM0GrSjGlyeLKYlUoZ3r-0" value="Item n" style="rounded=0;whiteSpace=wrap;html=1;fillColor=#f0a30a;strokeColor=#BD7000;fontSize=16;fontColor=#FFFFFF;fontStyle=1" parent="FjcG_EZS6peZCFK7HGRu-1" vertex="1">
                    <mxGeometry x="210" y="430" width="121" height="40" as="geometry"/>
                </mxCell>
                <mxCell id="UM0GrSjGlyeLKYlUoZ3r-1" value="Item&amp;nbsp;n+1" style="rounded=0;whiteSpace=wrap;html=1;fillColor=#f0a30a;strokeColor=#BD7000;fontSize=16;fontColor=#FFFFFF;fontStyle=1" parent="FjcG_EZS6peZCFK7HGRu-1" vertex="1">
                    <mxGeometry x="210" y="480" width="121" height="40" as="geometry"/>
                </mxCell>
                <mxCell id="UM0GrSjGlyeLKYlUoZ3r-2" value="..." style="rounded=0;whiteSpace=wrap;html=1;fillColor=#f0a30a;strokeColor=#BD7000;fontSize=16;fontColor=#FFFFFF;fontStyle=1" parent="FjcG_EZS6peZCFK7HGRu-1" vertex="1">
                    <mxGeometry x="210" y="530" width="121" height="40" as="geometry"/>
                </mxCell>
                <mxCell id="f-LSN3RQoGjUncnsijon-1" value="" style="endArrow=classic;html=1;fillColor=#008a00;strokeColor=#00FF00;" parent="FjcG_EZS6peZCFK7HGRu-1" source="FjcG_EZS6peZCFK7HGRu-2" edge="1">
                    <mxGeometry width="50" height="50" relative="1" as="geometry">
                        <mxPoint x="200" y="280" as="sourcePoint"/>
                        <mxPoint x="200" y="320" as="targetPoint"/>
                    </mxGeometry>
                </mxCell>
                <mxCell id="6DCvWLd1cAi8au688H3f-0" value="" style="verticalLabelPosition=bottom;verticalAlign=top;html=1;shape=mxgraph.basic.rect;fillColor2=none;strokeWidth=1;size=20;indent=5;shadow=0;dashed=1;dashPattern=1 4;fillColor=#f0a30a;fontColor=#000000;strokeColor=none;opacity=75;" parent="FjcG_EZS6peZCFK7HGRu-1" vertex="1">
                    <mxGeometry x="200" y="210" width="160" height="70" as="geometry"/>
                </mxCell>
                <mxCell id="5kypP5BEXuFAy-SDP8Yx-0" value="" style="verticalLabelPosition=bottom;verticalAlign=top;html=1;shape=mxgraph.basic.rect;fillColor2=none;strokeWidth=1;size=20;indent=5;shadow=0;dashed=1;dashPattern=1 4;fillColor=#f0a30a;fontColor=#000000;strokeColor=none;opacity=75;" parent="FjcG_EZS6peZCFK7HGRu-1" vertex="1">
                    <mxGeometry x="200" y="720" width="160" height="70" as="geometry"/>
                </mxCell>
                <mxCell id="frs9M65kqTpTapgJoufS-0" value="" style="endArrow=none;html=1;fontStyle=1;fillColor=#e51400;strokeColor=#B20000;strokeWidth=2;entryX=1.006;entryY=-0.014;entryDx=0;entryDy=0;entryPerimeter=0;" parent="FjcG_EZS6peZCFK7HGRu-1" target="6DCvWLd1cAi8au688H3f-0" edge="1">
                    <mxGeometry width="50" height="50" relative="1" as="geometry">
                        <mxPoint x="80" y="209" as="sourcePoint"/>
                        <mxPoint x="230" y="210" as="targetPoint"/>
                    </mxGeometry>
                </mxCell>
                <mxCell id="frs9M65kqTpTapgJoufS-4" value="" style="endArrow=none;html=1;fontStyle=1;fillColor=#e51400;strokeColor=#B20000;strokeWidth=2;entryX=1.006;entryY=-0.014;entryDx=0;entryDy=0;entryPerimeter=0;" parent="FjcG_EZS6peZCFK7HGRu-1" edge="1">
                    <mxGeometry width="50" height="50" relative="1" as="geometry">
                        <mxPoint x="80" y="790" as="sourcePoint"/>
                        <mxPoint x="360.96000000000004" y="790.02" as="targetPoint"/>
                    </mxGeometry>
                </mxCell>
                <mxCell id="gqJpgvV4dVxqm-bfUjjb-1" value="&lt;font color=&quot;#ffffff&quot;&gt;PaddingTop&lt;/font&gt;" style="strokeWidth=1;shadow=0;dashed=0;align=center;html=1;shape=mxgraph.mockup.text.callout;linkText=;textSize=17;textColor=#666666;callDir=NW;callStyle=line;fontSize=17;fontColor=#666666;align=left;verticalAlign=top;rounded=1;sketch=1;gradientColor=none;strokeColor=#999999;" vertex="1" parent="FjcG_EZS6peZCFK7HGRu-1">
                    <mxGeometry x="40" y="90" width="190" height="50" as="geometry"/>
                </mxCell>
                <mxCell id="Mf7zEPxiQJsw36hq_VAg-0" value="&lt;span style=&quot;color: rgb(255 , 255 , 255) ; font-family: &amp;#34;helvetica&amp;#34; ; font-size: 17px ; font-style: normal ; font-weight: 400 ; letter-spacing: normal ; text-align: left ; text-indent: 0px ; text-transform: none ; word-spacing: 0px ; background-color: rgb(42 , 42 , 42) ; display: inline ; float: none&quot;&gt;Render-Range Top&lt;/span&gt;" style="text;whiteSpace=wrap;html=1;" vertex="1" parent="FjcG_EZS6peZCFK7HGRu-1">
                    <mxGeometry x="80" y="180" width="150" height="30" as="geometry"/>
                </mxCell>
                <mxCell id="1AVN4KXvne2g1GT32qLo-0" value="&lt;font color=&quot;#ffffff&quot;&gt;Scrollable Container&lt;/font&gt;" style="strokeWidth=1;shadow=0;dashed=0;align=center;html=1;shape=mxgraph.mockup.text.callout;linkText=;textSize=17;textColor=#666666;callDir=NW;callStyle=line;fontSize=17;fontColor=#666666;align=left;verticalAlign=top;rounded=1;sketch=1;gradientColor=none;strokeColor=#999999;" vertex="1" parent="FjcG_EZS6peZCFK7HGRu-1">
                    <mxGeometry x="30" y="280" width="190" height="50" as="geometry"/>
                </mxCell>
                <mxCell id="fvLee9uuDquYq-ePE6B4-0" value="&lt;span style=&quot;color: rgb(255 , 255 , 255) ; font-family: &amp;#34;helvetica&amp;#34; ; font-size: 17px ; font-style: normal ; font-weight: 400 ; letter-spacing: normal ; text-align: left ; text-indent: 0px ; text-transform: none ; word-spacing: 0px ; background-color: rgb(42 , 42 , 42) ; display: inline ; float: none&quot;&gt;Render-Range Bottom&lt;/span&gt;" style="text;whiteSpace=wrap;html=1;" vertex="1" parent="FjcG_EZS6peZCFK7HGRu-1">
                    <mxGeometry x="80" y="790" width="180" height="30" as="geometry"/>
                </mxCell>
                <mxCell id="Mr4WzyPPGwkGzNRNRDn2-0" value="&lt;font color=&quot;#ffffff&quot;&gt;PaddingBottom&lt;/font&gt;" style="strokeWidth=1;shadow=0;dashed=0;align=center;html=1;shape=mxgraph.mockup.text.callout;linkText=;textSize=17;textColor=#666666;callDir=NW;callStyle=line;fontSize=17;fontColor=#666666;align=left;verticalAlign=top;rounded=1;sketch=1;gradientColor=none;strokeColor=#999999;" vertex="1" parent="FjcG_EZS6peZCFK7HGRu-1">
                    <mxGeometry x="30" y="852" width="190" height="50" as="geometry"/>
                </mxCell>
                <mxCell id="zFbzu49iQo6pte8JRkU3-0" value="&lt;font color=&quot;#ffffff&quot;&gt;Leading-Buffer Zone&lt;/font&gt;" style="strokeWidth=1;shadow=0;dashed=0;align=center;html=1;shape=mxgraph.mockup.text.callout;linkText=;textSize=17;textColor=#666666;callDir=NE;callStyle=line;fontSize=17;fontColor=#666666;align=right;verticalAlign=top;rounded=1;sketch=1;gradientColor=none;strokeColor=#999999;" vertex="1" parent="FjcG_EZS6peZCFK7HGRu-1">
                    <mxGeometry x="350" y="220" width="190" height="50" as="geometry"/>
                </mxCell>
                <mxCell id="BQha_4gE0oudXpTv7oas-0" value="&lt;font color=&quot;#ffffff&quot;&gt;Trailing-Buffer Zone&lt;/font&gt;" style="strokeWidth=1;shadow=0;dashed=0;align=center;html=1;shape=mxgraph.mockup.text.callout;linkText=;textSize=17;textColor=#666666;callDir=NE;callStyle=line;fontSize=17;fontColor=#666666;align=right;verticalAlign=top;rounded=1;sketch=1;gradientColor=none;strokeColor=#999999;" vertex="1" parent="FjcG_EZS6peZCFK7HGRu-1">
                    <mxGeometry x="350" y="710" width="190" height="50" as="geometry"/>
                </mxCell>
                <mxCell id="FjcG_EZS6peZCFK7HGRu-12" value="" style="strokeWidth=1;shadow=0;dashed=0;align=center;html=1;shape=mxgraph.mockup.text.callout;linkText=;textSize=17;textColor=#666666;callDir=NE;callStyle=line;fontSize=17;fontColor=#666666;align=right;verticalAlign=top;rounded=1;sketch=1;gradientColor=none;strokeColor=#999999;" parent="FjcG_EZS6peZCFK7HGRu-1" vertex="1">
                    <mxGeometry x="280" y="405" width="190" height="50" as="geometry"/>
                </mxCell>
                <mxCell id="plIGT5xE1wLDbLPtubqC-0" value="&lt;font style=&quot;font-size: 16px&quot;&gt;&lt;font&gt;Item Range (&lt;font color=&quot;#b20000&quot;&gt;items mustn't have any margin&lt;/font&gt;)&lt;br&gt;&lt;/font&gt;&lt;b&gt;&lt;font color=&quot;#3399ff&quot;&gt;top: sum(itemHeight 1~n-1) or offsetTop&lt;br&gt;&lt;/font&gt;&lt;/b&gt;&lt;b&gt;&lt;font color=&quot;#3399ff&quot;&gt;bottom: top + offsetHeight&lt;br&gt;&lt;/font&gt;dataset: index, key&lt;/b&gt;&lt;br&gt;&lt;/font&gt;" style="text;html=1;strokeColor=none;fillColor=none;align=left;verticalAlign=middle;whiteSpace=wrap;rounded=0;shadow=0;sketch=1;" parent="FjcG_EZS6peZCFK7HGRu-1" vertex="1">
                    <mxGeometry x="470" y="400" width="339" height="80" as="geometry"/>
                </mxCell>
                <mxCell id="f-LSN3RQoGjUncnsijon-2" value="" style="endArrow=classic;html=1;fillColor=#008a00;strokeColor=#00FF00;entryX=0.5;entryY=0;entryDx=0;entryDy=0;startArrow=classic;startFill=1;" parent="FjcG_EZS6peZCFK7HGRu-1" target="UM0GrSjGlyeLKYlUoZ3r-0" edge="1">
                    <mxGeometry width="50" height="50" relative="1" as="geometry">
                        <mxPoint x="271" y="80" as="sourcePoint"/>
                        <mxPoint x="270" y="415" as="targetPoint"/>
                    </mxGeometry>
                </mxCell>
                <mxCell id="ln-u_kUV-0CIbV-D9ORn-0" value="" style="endArrow=classic;startArrow=classic;html=1;fillColor=#e51400;strokeColor=#00FF00;" edge="1" parent="FjcG_EZS6peZCFK7HGRu-1">
                    <mxGeometry width="50" height="50" relative="1" as="geometry">
                        <mxPoint x="379.9999999999998" y="790" as="sourcePoint"/>
                        <mxPoint x="380" y="210" as="targetPoint"/>
                    </mxGeometry>
                </mxCell>
                <mxCell id="75bVLxRwcLuw-bY9fUi_-0" value="&lt;font style=&quot;font-size: 16px&quot;&gt;Render Range&lt;br&gt;&lt;/font&gt;" style="text;html=1;strokeColor=none;fillColor=none;align=left;verticalAlign=middle;whiteSpace=wrap;rounded=0;shadow=0;sketch=1;" vertex="1" parent="FjcG_EZS6peZCFK7HGRu-1">
                    <mxGeometry x="370" y="510" width="120" height="20" as="geometry"/>
                </mxCell>
                <mxCell id="RhKwIug-KaqZaroSnrhk-0" value="" style="endArrow=classic;html=1;fillColor=#008a00;strokeColor=#00FF00;" edge="1" parent="FjcG_EZS6peZCFK7HGRu-1">
                    <mxGeometry width="50" height="50" relative="1" as="geometry">
                        <mxPoint x="199.99999999999977" y="80" as="sourcePoint"/>
                        <mxPoint x="199.99999999999977" y="120" as="targetPoint"/>
                    </mxGeometry>
                </mxCell>
                <mxCell id="RhKwIug-KaqZaroSnrhk-1" value="&lt;font style=&quot;font-size: 16px&quot;&gt;Y&lt;sub&gt;1&lt;/sub&gt;&lt;br&gt;&lt;/font&gt;" style="text;html=1;strokeColor=none;fillColor=none;align=center;verticalAlign=middle;whiteSpace=wrap;rounded=0;shadow=0;sketch=1;fontColor=#00FF00;fontStyle=0" vertex="1" parent="FjcG_EZS6peZCFK7HGRu-1">
                    <mxGeometry x="200" y="90" width="20" height="20" as="geometry"/>
                </mxCell>
                <mxCell id="RhKwIug-KaqZaroSnrhk-2" value="&lt;font style=&quot;font-size: 16px&quot;&gt;X&lt;sub&gt;1&lt;/sub&gt;&lt;br&gt;&lt;/font&gt;" style="text;html=1;strokeColor=none;fillColor=none;align=center;verticalAlign=middle;whiteSpace=wrap;rounded=0;shadow=0;sketch=1;fontStyle=0;fontColor=#B20000;" vertex="1" parent="FjcG_EZS6peZCFK7HGRu-1">
                    <mxGeometry x="210" y="60" width="20" height="20" as="geometry"/>
                </mxCell>
                <mxCell id="RhKwIug-KaqZaroSnrhk-3" value="" style="endArrow=classic;html=1;fillColor=#e51400;strokeColor=#B20000;" edge="1" parent="FjcG_EZS6peZCFK7HGRu-1">
                    <mxGeometry width="50" height="50" relative="1" as="geometry">
                        <mxPoint x="199.99999999999977" y="79.88999999999999" as="sourcePoint"/>
                        <mxPoint x="239.99999999999977" y="79.88999999999999" as="targetPoint"/>
                    </mxGeometry>
                </mxCell>
            </root>
        </mxGraphModel>
    </diagram>
    <diagram id="NV1yAfO5XiWLq-OxWb4L" name="Reconciler">
        <mxGraphModel dx="1169" dy="845" grid="1" gridSize="10" guides="1" tooltips="1" connect="1" arrows="1" fold="1" page="1" pageScale="1" pageWidth="1169" pageHeight="1654" math="0" shadow="0">
            <root>
                <mxCell id="ZSWde1RTOkdnzK1dxSv3-0"/>
                <mxCell id="ZSWde1RTOkdnzK1dxSv3-1" parent="ZSWde1RTOkdnzK1dxSv3-0"/>
                <mxCell id="uAEo5A_9KK2PzP_jsbqj-0" value="" style="verticalLabelPosition=bottom;verticalAlign=top;html=1;shape=mxgraph.basic.rect;fillColor2=none;strokeWidth=1;size=20;indent=5;shadow=0;" vertex="1" parent="ZSWde1RTOkdnzK1dxSv3-1">
                    <mxGeometry x="200" y="280" width="160" height="440" as="geometry"/>
                </mxCell>
                <mxCell id="uAEo5A_9KK2PzP_jsbqj-1" value="" style="verticalLabelPosition=bottom;verticalAlign=top;html=1;shape=mxgraph.basic.rect;fillColor2=none;strokeWidth=1;size=20;indent=5;shadow=0;dashed=1;" vertex="1" parent="ZSWde1RTOkdnzK1dxSv3-1">
                    <mxGeometry x="200" y="80" width="160" height="200" as="geometry"/>
                </mxCell>
                <mxCell id="uAEo5A_9KK2PzP_jsbqj-2" value="" style="verticalLabelPosition=bottom;verticalAlign=top;html=1;shape=mxgraph.basic.rect;fillColor2=none;strokeWidth=1;size=20;indent=5;shadow=0;dashed=1;" vertex="1" parent="ZSWde1RTOkdnzK1dxSv3-1">
                    <mxGeometry x="200" y="720" width="160" height="200" as="geometry"/>
                </mxCell>
                <mxCell id="uAEo5A_9KK2PzP_jsbqj-3" value="" style="verticalLabelPosition=bottom;shadow=0;dashed=0;align=center;html=1;verticalAlign=top;strokeWidth=1;shape=mxgraph.mockup.navigation.scrollBar;strokeColor=#999999;barPos=46.765;fillColor2=#99ddff;strokeColor2=none;direction=north;rounded=1;sketch=1;gradientColor=none;" vertex="1" parent="ZSWde1RTOkdnzK1dxSv3-1">
                    <mxGeometry x="340" y="280" width="20" height="440" as="geometry"/>
                </mxCell>
                <mxCell id="uAEo5A_9KK2PzP_jsbqj-4" value="Item n" style="rounded=0;whiteSpace=wrap;html=1;fillColor=#f0a30a;strokeColor=#BD7000;fontSize=16;fontColor=#FFFFFF;fontStyle=1" vertex="1" parent="ZSWde1RTOkdnzK1dxSv3-1">
                    <mxGeometry x="210" y="430" width="121" height="40" as="geometry"/>
                </mxCell>
                <mxCell id="uAEo5A_9KK2PzP_jsbqj-5" value="Item&amp;nbsp;n+1" style="rounded=0;whiteSpace=wrap;html=1;fillColor=#f0a30a;strokeColor=#BD7000;fontSize=16;fontColor=#FFFFFF;fontStyle=1" vertex="1" parent="ZSWde1RTOkdnzK1dxSv3-1">
                    <mxGeometry x="210" y="480" width="121" height="40" as="geometry"/>
                </mxCell>
                <mxCell id="uAEo5A_9KK2PzP_jsbqj-6" value="..." style="rounded=0;whiteSpace=wrap;html=1;fillColor=#f0a30a;strokeColor=#BD7000;fontSize=16;fontColor=#FFFFFF;fontStyle=1" vertex="1" parent="ZSWde1RTOkdnzK1dxSv3-1">
                    <mxGeometry x="210" y="530" width="121" height="40" as="geometry"/>
                </mxCell>
                <mxCell id="uAEo5A_9KK2PzP_jsbqj-7" value="" style="endArrow=classic;html=1;fillColor=#008a00;strokeColor=#00FF00;" edge="1" parent="ZSWde1RTOkdnzK1dxSv3-1" source="uAEo5A_9KK2PzP_jsbqj-0">
                    <mxGeometry width="50" height="50" relative="1" as="geometry">
                        <mxPoint x="200" y="280" as="sourcePoint"/>
                        <mxPoint x="200" y="320" as="targetPoint"/>
                    </mxGeometry>
                </mxCell>
                <mxCell id="uAEo5A_9KK2PzP_jsbqj-8" value="" style="verticalLabelPosition=bottom;verticalAlign=top;html=1;shape=mxgraph.basic.rect;fillColor2=none;strokeWidth=1;size=20;indent=5;shadow=0;dashed=1;dashPattern=1 4;fillColor=#f0a30a;fontColor=#000000;strokeColor=none;opacity=75;" vertex="1" parent="ZSWde1RTOkdnzK1dxSv3-1">
                    <mxGeometry x="200" y="210" width="160" height="70" as="geometry"/>
                </mxCell>
                <mxCell id="uAEo5A_9KK2PzP_jsbqj-9" value="" style="verticalLabelPosition=bottom;verticalAlign=top;html=1;shape=mxgraph.basic.rect;fillColor2=none;strokeWidth=1;size=20;indent=5;shadow=0;dashed=1;dashPattern=1 4;fillColor=#f0a30a;fontColor=#000000;strokeColor=none;opacity=75;" vertex="1" parent="ZSWde1RTOkdnzK1dxSv3-1">
                    <mxGeometry x="200" y="720" width="160" height="70" as="geometry"/>
                </mxCell>
                <mxCell id="uAEo5A_9KK2PzP_jsbqj-10" value="" style="endArrow=none;html=1;fontStyle=1;fillColor=#e51400;strokeColor=#B20000;strokeWidth=2;entryX=1.006;entryY=-0.014;entryDx=0;entryDy=0;entryPerimeter=0;exitX=0;exitY=1;exitDx=0;exitDy=0;" edge="1" parent="ZSWde1RTOkdnzK1dxSv3-1" target="uAEo5A_9KK2PzP_jsbqj-8" source="uAEo5A_9KK2PzP_jsbqj-13">
                    <mxGeometry width="50" height="50" relative="1" as="geometry">
                        <mxPoint x="80" y="209" as="sourcePoint"/>
                        <mxPoint x="230" y="210" as="targetPoint"/>
                    </mxGeometry>
                </mxCell>
                <mxCell id="uAEo5A_9KK2PzP_jsbqj-11" value="" style="endArrow=none;html=1;fontStyle=1;fillColor=#e51400;strokeColor=#B20000;strokeWidth=2;entryX=1.006;entryY=-0.014;entryDx=0;entryDy=0;entryPerimeter=0;exitX=0;exitY=0;exitDx=0;exitDy=0;" edge="1" parent="ZSWde1RTOkdnzK1dxSv3-1" source="uAEo5A_9KK2PzP_jsbqj-15">
                    <mxGeometry width="50" height="50" relative="1" as="geometry">
                        <mxPoint x="80" y="790" as="sourcePoint"/>
                        <mxPoint x="360.96000000000004" y="790.02" as="targetPoint"/>
                    </mxGeometry>
                </mxCell>
                <mxCell id="uAEo5A_9KK2PzP_jsbqj-12" value="&lt;font color=&quot;#ffffff&quot;&gt;PaddingTop&lt;/font&gt;" style="strokeWidth=1;shadow=0;dashed=0;align=center;html=1;shape=mxgraph.mockup.text.callout;linkText=;textSize=17;textColor=#666666;callDir=NW;callStyle=line;fontSize=17;fontColor=#666666;align=left;verticalAlign=top;rounded=1;sketch=1;gradientColor=none;strokeColor=#00FF00;" vertex="1" parent="ZSWde1RTOkdnzK1dxSv3-1">
                    <mxGeometry x="40" y="80" width="190" height="50" as="geometry"/>
                </mxCell>
                <mxCell id="uAEo5A_9KK2PzP_jsbqj-14" value="&lt;font color=&quot;#ffffff&quot;&gt;Scrollable Container&lt;/font&gt;" style="strokeWidth=1;shadow=0;dashed=0;align=center;html=1;shape=mxgraph.mockup.text.callout;linkText=;textSize=17;textColor=#666666;callDir=NW;callStyle=line;fontSize=17;fontColor=#666666;align=left;verticalAlign=top;rounded=1;sketch=1;gradientColor=none;strokeColor=#999999;" vertex="1" parent="ZSWde1RTOkdnzK1dxSv3-1">
                    <mxGeometry x="30" y="280" width="190" height="50" as="geometry"/>
                </mxCell>
                <mxCell id="uAEo5A_9KK2PzP_jsbqj-15" value="&lt;span style=&quot;color: rgb(255 , 255 , 255) ; font-family: &amp;#34;helvetica&amp;#34; ; font-size: 17px ; font-style: normal ; font-weight: 400 ; letter-spacing: normal ; text-align: left ; text-indent: 0px ; text-transform: none ; word-spacing: 0px ; background-color: rgb(42 , 42 , 42) ; display: inline ; float: none&quot;&gt;Render-Range Bottom&lt;/span&gt;" style="text;whiteSpace=wrap;html=1;" vertex="1" parent="ZSWde1RTOkdnzK1dxSv3-1">
                    <mxGeometry x="20" y="790" width="180" height="30" as="geometry"/>
                </mxCell>
                <mxCell id="uAEo5A_9KK2PzP_jsbqj-16" value="&lt;font color=&quot;#ffffff&quot;&gt;PaddingBottom&lt;/font&gt;" style="strokeWidth=1;shadow=0;dashed=0;align=center;html=1;shape=mxgraph.mockup.text.callout;linkText=;textSize=17;textColor=#666666;callDir=NW;callStyle=line;fontSize=17;fontColor=#666666;align=left;verticalAlign=top;rounded=1;sketch=1;gradientColor=none;strokeColor=#00FF00;" vertex="1" parent="ZSWde1RTOkdnzK1dxSv3-1">
                    <mxGeometry x="30" y="852" width="190" height="50" as="geometry"/>
                </mxCell>
                <mxCell id="uAEo5A_9KK2PzP_jsbqj-17" value="&lt;font color=&quot;#ffffff&quot;&gt;Leading-Buffer Zone&lt;/font&gt;" style="strokeWidth=1;shadow=0;dashed=0;align=center;html=1;shape=mxgraph.mockup.text.callout;linkText=;textSize=17;textColor=#666666;callDir=NE;callStyle=line;fontSize=17;fontColor=#666666;align=right;verticalAlign=top;rounded=1;sketch=1;gradientColor=none;strokeColor=#999999;" vertex="1" parent="ZSWde1RTOkdnzK1dxSv3-1">
                    <mxGeometry x="350" y="220" width="190" height="50" as="geometry"/>
                </mxCell>
                <mxCell id="uAEo5A_9KK2PzP_jsbqj-18" value="&lt;font color=&quot;#ffffff&quot;&gt;Trailing-Buffer Zone&lt;/font&gt;" style="strokeWidth=1;shadow=0;dashed=0;align=center;html=1;shape=mxgraph.mockup.text.callout;linkText=;textSize=17;textColor=#666666;callDir=NE;callStyle=line;fontSize=17;fontColor=#666666;align=right;verticalAlign=top;rounded=1;sketch=1;gradientColor=none;strokeColor=#999999;" vertex="1" parent="ZSWde1RTOkdnzK1dxSv3-1">
                    <mxGeometry x="350" y="710" width="190" height="50" as="geometry"/>
                </mxCell>
                <mxCell id="uAEo5A_9KK2PzP_jsbqj-26" value="Item&lt;br&gt;&lt;span style=&quot;color: rgb(178 , 0 , 0)&quot;&gt;remove&lt;/span&gt;&lt;font color=&quot;#b20000&quot;&gt;&lt;br&gt;&lt;/font&gt;&lt;span style=&quot;color: rgb(178 , 0 , 0)&quot;&gt;prepend&lt;/span&gt;&lt;font color=&quot;#b20000&quot;&gt;&lt;br&gt;&lt;/font&gt;" style="rounded=0;whiteSpace=wrap;html=1;fillColor=#f0a30a;fontSize=16;fontColor=#FFFFFF;fontStyle=1;strokeColor=#00FF00;" vertex="1" parent="ZSWde1RTOkdnzK1dxSv3-1">
                    <mxGeometry x="210" y="140" width="121" height="60" as="geometry"/>
                </mxCell>
                <mxCell id="uAEo5A_9KK2PzP_jsbqj-13" value="&lt;span style=&quot;color: rgb(255 , 255 , 255) ; font-family: &amp;#34;helvetica&amp;#34; ; font-size: 17px ; font-style: normal ; font-weight: 400 ; letter-spacing: normal ; text-align: left ; text-indent: 0px ; text-transform: none ; word-spacing: 0px ; background-color: rgb(42 , 42 , 42) ; display: inline ; float: none&quot;&gt;Render-Range Top&lt;/span&gt;" style="text;whiteSpace=wrap;html=1;" vertex="1" parent="ZSWde1RTOkdnzK1dxSv3-1">
                    <mxGeometry x="50" y="180" width="150" height="30" as="geometry"/>
                </mxCell>
                <mxCell id="uAEo5A_9KK2PzP_jsbqj-27" value="Item&lt;br&gt;&lt;span style=&quot;color: rgb(178 , 0 , 0)&quot;&gt;remove&lt;br&gt;&lt;/span&gt;&lt;span style=&quot;color: rgb(178 , 0 , 0)&quot;&gt;append&lt;/span&gt;&lt;font color=&quot;#b20000&quot;&gt;&lt;br&gt;&lt;/font&gt;" style="rounded=0;whiteSpace=wrap;html=1;fillColor=#f0a30a;fontSize=16;fontColor=#FFFFFF;fontStyle=1;strokeColor=#00FF00;" vertex="1" parent="ZSWde1RTOkdnzK1dxSv3-1">
                    <mxGeometry x="210" y="797" width="121" height="60" as="geometry"/>
                </mxCell>
                <mxCell id="uAEo5A_9KK2PzP_jsbqj-28" value="&lt;font color=&quot;#ffffff&quot;&gt;Interaction Zone&lt;/font&gt;" style="strokeWidth=1;shadow=0;dashed=0;align=center;html=1;shape=mxgraph.mockup.text.callout;linkText=;textSize=17;textColor=#666666;callDir=NE;callStyle=line;fontSize=17;fontColor=#666666;align=right;verticalAlign=top;rounded=1;sketch=1;gradientColor=none;strokeColor=#999999;" vertex="1" parent="ZSWde1RTOkdnzK1dxSv3-1">
                    <mxGeometry x="331" y="330" width="210" height="50" as="geometry"/>
                </mxCell>
                <mxCell id="hcA5yU2A5F69D5BbOVq1-0" value="" style="endArrow=classic;html=1;fillColor=#008a00;strokeColor=#00FF00;" edge="1" parent="ZSWde1RTOkdnzK1dxSv3-1">
                    <mxGeometry width="50" height="50" relative="1" as="geometry">
                        <mxPoint x="199.99999999999977" y="80" as="sourcePoint"/>
                        <mxPoint x="199.99999999999977" y="120" as="targetPoint"/>
                    </mxGeometry>
                </mxCell>
                <mxCell id="hcA5yU2A5F69D5BbOVq1-1" value="&lt;font style=&quot;font-size: 16px&quot;&gt;Y&lt;sub&gt;1&lt;/sub&gt;&lt;br&gt;&lt;/font&gt;" style="text;html=1;strokeColor=none;fillColor=none;align=center;verticalAlign=middle;whiteSpace=wrap;rounded=0;shadow=0;sketch=1;fontColor=#00FF00;fontStyle=0" vertex="1" parent="ZSWde1RTOkdnzK1dxSv3-1">
                    <mxGeometry x="200" y="90" width="20" height="20" as="geometry"/>
                </mxCell>
                <mxCell id="hcA5yU2A5F69D5BbOVq1-2" value="&lt;font style=&quot;font-size: 16px&quot;&gt;X&lt;sub&gt;1&lt;/sub&gt;&lt;br&gt;&lt;/font&gt;" style="text;html=1;strokeColor=none;fillColor=none;align=center;verticalAlign=middle;whiteSpace=wrap;rounded=0;shadow=0;sketch=1;fontStyle=0;fontColor=#B20000;" vertex="1" parent="ZSWde1RTOkdnzK1dxSv3-1">
                    <mxGeometry x="210" y="60" width="20" height="20" as="geometry"/>
                </mxCell>
                <mxCell id="hcA5yU2A5F69D5BbOVq1-3" value="" style="endArrow=classic;html=1;fillColor=#e51400;strokeColor=#B20000;" edge="1" parent="ZSWde1RTOkdnzK1dxSv3-1">
                    <mxGeometry width="50" height="50" relative="1" as="geometry">
                        <mxPoint x="199.99999999999977" y="79.88999999999999" as="sourcePoint"/>
                        <mxPoint x="239.99999999999977" y="79.88999999999999" as="targetPoint"/>
                    </mxGeometry>
                </mxCell>
                <mxCell id="DurVbg-x6OTMNeZRKQ0s-0" value="" style="edgeStyle=orthogonalEdgeStyle;rounded=0;orthogonalLoop=1;jettySize=auto;html=1;fontSize=16;strokeColor=#FFFFFF;strokeWidth=2;align=center;entryX=0;entryY=0.5;entryDx=0;entryDy=0;" edge="1" parent="ZSWde1RTOkdnzK1dxSv3-1" source="DurVbg-x6OTMNeZRKQ0s-1" target="DurVbg-x6OTMNeZRKQ0s-2">
                    <mxGeometry relative="1" as="geometry">
                        <mxPoint x="601" y="200" as="targetPoint"/>
                    </mxGeometry>
                </mxCell>
                <mxCell id="DurVbg-x6OTMNeZRKQ0s-1" value="Reconciler" style="rounded=0;whiteSpace=wrap;html=1;fontSize=16;fontStyle=1;align=center;strokeColor=#00FF00;" vertex="1" parent="ZSWde1RTOkdnzK1dxSv3-1">
                    <mxGeometry x="541" y="80" width="120" height="40" as="geometry"/>
                </mxCell>
                <mxCell id="DurVbg-x6OTMNeZRKQ0s-15" style="edgeStyle=orthogonalEdgeStyle;rounded=0;orthogonalLoop=1;jettySize=auto;html=1;exitX=1;exitY=0.5;exitDx=0;exitDy=0;entryX=0.5;entryY=0;entryDx=0;entryDy=0;startArrow=none;startFill=0;endArrow=classic;endFill=1;" edge="1" parent="ZSWde1RTOkdnzK1dxSv3-1" source="DurVbg-x6OTMNeZRKQ0s-2" target="DurVbg-x6OTMNeZRKQ0s-13">
                    <mxGeometry relative="1" as="geometry"/>
                </mxCell>
                <mxCell id="DurVbg-x6OTMNeZRKQ0s-2" value="Remove Leading Items" style="rounded=0;whiteSpace=wrap;html=1;fontSize=16;fontStyle=0;align=center;" vertex="1" parent="ZSWde1RTOkdnzK1dxSv3-1">
                    <mxGeometry x="661" y="180" width="200" height="30" as="geometry"/>
                </mxCell>
                <mxCell id="DurVbg-x6OTMNeZRKQ0s-16" style="edgeStyle=orthogonalEdgeStyle;rounded=0;orthogonalLoop=1;jettySize=auto;html=1;exitX=1;exitY=0.5;exitDx=0;exitDy=0;entryX=0;entryY=0.25;entryDx=0;entryDy=0;startArrow=none;startFill=0;endArrow=classic;endFill=1;" edge="1" parent="ZSWde1RTOkdnzK1dxSv3-1" source="DurVbg-x6OTMNeZRKQ0s-3" target="DurVbg-x6OTMNeZRKQ0s-13">
                    <mxGeometry relative="1" as="geometry"/>
                </mxCell>
                <mxCell id="DurVbg-x6OTMNeZRKQ0s-3" value="Prepend Items" style="rounded=0;whiteSpace=wrap;html=1;fontSize=16;fontStyle=0;align=center;" vertex="1" parent="ZSWde1RTOkdnzK1dxSv3-1">
                    <mxGeometry x="661" y="230" width="200" height="30" as="geometry"/>
                </mxCell>
                <mxCell id="DurVbg-x6OTMNeZRKQ0s-17" style="edgeStyle=orthogonalEdgeStyle;rounded=0;orthogonalLoop=1;jettySize=auto;html=1;exitX=1;exitY=0.5;exitDx=0;exitDy=0;entryX=0;entryY=0.75;entryDx=0;entryDy=0;startArrow=none;startFill=0;endArrow=classic;endFill=1;" edge="1" parent="ZSWde1RTOkdnzK1dxSv3-1" source="DurVbg-x6OTMNeZRKQ0s-4" target="DurVbg-x6OTMNeZRKQ0s-13">
                    <mxGeometry relative="1" as="geometry"/>
                </mxCell>
                <mxCell id="DurVbg-x6OTMNeZRKQ0s-4" value="Remove Trailing Items" style="rounded=0;whiteSpace=wrap;html=1;fontSize=16;fontStyle=0;align=center;" vertex="1" parent="ZSWde1RTOkdnzK1dxSv3-1">
                    <mxGeometry x="661" y="280" width="200" height="30" as="geometry"/>
                </mxCell>
                <mxCell id="DurVbg-x6OTMNeZRKQ0s-18" style="edgeStyle=orthogonalEdgeStyle;rounded=0;orthogonalLoop=1;jettySize=auto;html=1;exitX=1;exitY=0.5;exitDx=0;exitDy=0;entryX=0.5;entryY=1;entryDx=0;entryDy=0;startArrow=none;startFill=0;endArrow=classic;endFill=1;" edge="1" parent="ZSWde1RTOkdnzK1dxSv3-1" source="DurVbg-x6OTMNeZRKQ0s-5" target="DurVbg-x6OTMNeZRKQ0s-13">
                    <mxGeometry relative="1" as="geometry"/>
                </mxCell>
                <mxCell id="DurVbg-x6OTMNeZRKQ0s-5" value="Append Items" style="rounded=0;whiteSpace=wrap;html=1;fontSize=16;fontStyle=0;align=center;" vertex="1" parent="ZSWde1RTOkdnzK1dxSv3-1">
                    <mxGeometry x="661" y="330" width="200" height="30" as="geometry"/>
                </mxCell>
                <mxCell id="DurVbg-x6OTMNeZRKQ0s-6" value="" style="edgeStyle=orthogonalEdgeStyle;rounded=0;orthogonalLoop=1;jettySize=auto;html=1;fontSize=16;strokeColor=#FFFFFF;strokeWidth=2;align=center;entryX=0;entryY=0.5;entryDx=0;entryDy=0;exitX=0.5;exitY=1;exitDx=0;exitDy=0;" edge="1" parent="ZSWde1RTOkdnzK1dxSv3-1" source="DurVbg-x6OTMNeZRKQ0s-1" target="DurVbg-x6OTMNeZRKQ0s-3">
                    <mxGeometry relative="1" as="geometry">
                        <mxPoint x="561" y="230" as="sourcePoint"/>
                        <mxPoint x="621" y="285" as="targetPoint"/>
                    </mxGeometry>
                </mxCell>
                <mxCell id="DurVbg-x6OTMNeZRKQ0s-7" value="" style="edgeStyle=orthogonalEdgeStyle;rounded=0;orthogonalLoop=1;jettySize=auto;html=1;fontSize=16;strokeColor=#FFFFFF;strokeWidth=2;align=center;entryX=0;entryY=0.5;entryDx=0;entryDy=0;exitX=0.5;exitY=1;exitDx=0;exitDy=0;" edge="1" parent="ZSWde1RTOkdnzK1dxSv3-1" source="DurVbg-x6OTMNeZRKQ0s-1" target="DurVbg-x6OTMNeZRKQ0s-4">
                    <mxGeometry relative="1" as="geometry">
                        <mxPoint x="611" y="130" as="sourcePoint"/>
                        <mxPoint x="671" y="280" as="targetPoint"/>
                    </mxGeometry>
                </mxCell>
                <mxCell id="DurVbg-x6OTMNeZRKQ0s-8" value="" style="edgeStyle=orthogonalEdgeStyle;rounded=0;orthogonalLoop=1;jettySize=auto;html=1;fontSize=16;strokeColor=#FFFFFF;strokeWidth=2;align=center;entryX=0;entryY=0.5;entryDx=0;entryDy=0;exitX=0.5;exitY=1;exitDx=0;exitDy=0;" edge="1" parent="ZSWde1RTOkdnzK1dxSv3-1" source="DurVbg-x6OTMNeZRKQ0s-1" target="DurVbg-x6OTMNeZRKQ0s-5">
                    <mxGeometry relative="1" as="geometry">
                        <mxPoint x="611" y="130" as="sourcePoint"/>
                        <mxPoint x="671" y="385" as="targetPoint"/>
                    </mxGeometry>
                </mxCell>
                <mxCell id="DurVbg-x6OTMNeZRKQ0s-20" style="edgeStyle=orthogonalEdgeStyle;rounded=0;orthogonalLoop=1;jettySize=auto;html=1;exitX=1;exitY=0.5;exitDx=0;exitDy=0;entryX=0;entryY=0.25;entryDx=0;entryDy=0;startArrow=none;startFill=0;endArrow=classic;endFill=1;" edge="1" parent="ZSWde1RTOkdnzK1dxSv3-1" source="DurVbg-x6OTMNeZRKQ0s-9" target="DurVbg-x6OTMNeZRKQ0s-19">
                    <mxGeometry relative="1" as="geometry"/>
                </mxCell>
                <mxCell id="DurVbg-x6OTMNeZRKQ0s-9" value="Build Paddings&lt;br&gt;(Padding Top/Bottom)" style="rounded=0;whiteSpace=wrap;html=1;fontSize=16;fontStyle=0;align=center;" vertex="1" parent="ZSWde1RTOkdnzK1dxSv3-1">
                    <mxGeometry x="661" y="380" width="200" height="60" as="geometry"/>
                </mxCell>
                <mxCell id="DurVbg-x6OTMNeZRKQ0s-21" style="edgeStyle=orthogonalEdgeStyle;rounded=0;orthogonalLoop=1;jettySize=auto;html=1;exitX=1;exitY=0.5;exitDx=0;exitDy=0;entryX=0;entryY=0.75;entryDx=0;entryDy=0;startArrow=none;startFill=0;endArrow=classic;endFill=1;" edge="1" parent="ZSWde1RTOkdnzK1dxSv3-1" source="DurVbg-x6OTMNeZRKQ0s-10" target="DurVbg-x6OTMNeZRKQ0s-19">
                    <mxGeometry relative="1" as="geometry"/>
                </mxCell>
                <mxCell id="DurVbg-x6OTMNeZRKQ0s-10" value="Update Paddings&lt;br&gt;(Padding Top/Bottom)" style="rounded=0;whiteSpace=wrap;html=1;fontSize=16;fontStyle=0;align=center;" vertex="1" parent="ZSWde1RTOkdnzK1dxSv3-1">
                    <mxGeometry x="661" y="460" width="200" height="60" as="geometry"/>
                </mxCell>
                <mxCell id="DurVbg-x6OTMNeZRKQ0s-11" value="" style="edgeStyle=orthogonalEdgeStyle;rounded=0;orthogonalLoop=1;jettySize=auto;html=1;fontSize=16;strokeColor=#FFFFFF;strokeWidth=2;align=center;entryX=0;entryY=0.5;entryDx=0;entryDy=0;exitX=0.5;exitY=1;exitDx=0;exitDy=0;" edge="1" parent="ZSWde1RTOkdnzK1dxSv3-1" source="DurVbg-x6OTMNeZRKQ0s-1" target="DurVbg-x6OTMNeZRKQ0s-9">
                    <mxGeometry relative="1" as="geometry">
                        <mxPoint x="611" y="130" as="sourcePoint"/>
                        <mxPoint x="671" y="439" as="targetPoint"/>
                    </mxGeometry>
                </mxCell>
                <mxCell id="DurVbg-x6OTMNeZRKQ0s-12" value="" style="edgeStyle=orthogonalEdgeStyle;rounded=0;orthogonalLoop=1;jettySize=auto;html=1;fontSize=16;strokeColor=#FFFFFF;strokeWidth=2;align=center;entryX=0;entryY=0.5;entryDx=0;entryDy=0;exitX=0.5;exitY=1;exitDx=0;exitDy=0;" edge="1" parent="ZSWde1RTOkdnzK1dxSv3-1" source="DurVbg-x6OTMNeZRKQ0s-1" target="DurVbg-x6OTMNeZRKQ0s-10">
                    <mxGeometry relative="1" as="geometry">
                        <mxPoint x="611" y="130" as="sourcePoint"/>
                        <mxPoint x="671" y="495" as="targetPoint"/>
                    </mxGeometry>
                </mxCell>
                <mxCell id="DurVbg-x6OTMNeZRKQ0s-13" value="Render&lt;br&gt;List Items" style="rounded=0;whiteSpace=wrap;html=1;fontSize=16;fontStyle=0;align=center;" vertex="1" parent="ZSWde1RTOkdnzK1dxSv3-1">
                    <mxGeometry x="910" y="240" width="200" height="60" as="geometry"/>
                </mxCell>
                <mxCell id="DurVbg-x6OTMNeZRKQ0s-19" value="Render&lt;br&gt;Virtualized Scroll Height" style="rounded=0;whiteSpace=wrap;html=1;fontSize=16;fontStyle=0;align=center;" vertex="1" parent="ZSWde1RTOkdnzK1dxSv3-1">
                    <mxGeometry x="910" y="420" width="200" height="60" as="geometry"/>
                </mxCell>
                <mxCell id="uK21wDy38lbS9tM0exGT-6" style="edgeStyle=orthogonalEdgeStyle;rounded=0;orthogonalLoop=1;jettySize=auto;html=1;exitX=0;exitY=0.5;exitDx=0;exitDy=0;entryX=1;entryY=0.25;entryDx=0;entryDy=0;startArrow=none;startFill=0;endArrow=classic;endFill=1;strokeColor=#FFFFFF;strokeWidth=2;" edge="1" parent="ZSWde1RTOkdnzK1dxSv3-1" source="uK21wDy38lbS9tM0exGT-1" target="DurVbg-x6OTMNeZRKQ0s-1">
                    <mxGeometry relative="1" as="geometry"/>
                </mxCell>
                <mxCell id="uK21wDy38lbS9tM0exGT-1" value="Resize Tracker" style="rounded=0;whiteSpace=wrap;html=1;fontSize=16;fontStyle=0;align=center;" vertex="1" parent="ZSWde1RTOkdnzK1dxSv3-1">
                    <mxGeometry x="760" y="60" width="200" height="30" as="geometry"/>
                </mxCell>
                <mxCell id="uK21wDy38lbS9tM0exGT-7" style="edgeStyle=orthogonalEdgeStyle;rounded=0;orthogonalLoop=1;jettySize=auto;html=1;exitX=0;exitY=0.5;exitDx=0;exitDy=0;entryX=1;entryY=0.75;entryDx=0;entryDy=0;startArrow=none;startFill=0;endArrow=classic;endFill=1;strokeColor=#FFFFFF;strokeWidth=2;" edge="1" parent="ZSWde1RTOkdnzK1dxSv3-1" source="uK21wDy38lbS9tM0exGT-2" target="DurVbg-x6OTMNeZRKQ0s-1">
                    <mxGeometry relative="1" as="geometry"/>
                </mxCell>
                <mxCell id="uK21wDy38lbS9tM0exGT-2" value="Scroll Tracker" style="rounded=0;whiteSpace=wrap;html=1;fontSize=16;fontStyle=0;align=center;" vertex="1" parent="ZSWde1RTOkdnzK1dxSv3-1">
                    <mxGeometry x="760" y="110" width="200" height="30" as="geometry"/>
                </mxCell>
            </root>
        </mxGraphModel>
    </diagram>
    <diagram id="Ojh2Od4EaPkOU53l0zxR" name="States">
        <mxGraphModel dx="994" dy="718" grid="1" gridSize="10" guides="1" tooltips="1" connect="1" arrows="1" fold="1" page="1" pageScale="1" pageWidth="1654" pageHeight="1169" math="0" shadow="0">
            <root>
                <mxCell id="x0QyBqVEStz6KSpzD9wP-0"/>
                <mxCell id="x0QyBqVEStz6KSpzD9wP-1" parent="x0QyBqVEStz6KSpzD9wP-0"/>
                <mxCell id="JHD3koMrQDyXabzxUQS9-7" value="" style="edgeStyle=orthogonalEdgeStyle;rounded=0;orthogonalLoop=1;jettySize=auto;html=1;fontSize=16;strokeColor=#FFFFFF;strokeWidth=2;align=center;entryX=0;entryY=0.5;entryDx=0;entryDy=0;" parent="x0QyBqVEStz6KSpzD9wP-1" source="x0QyBqVEStz6KSpzD9wP-2" target="x0QyBqVEStz6KSpzD9wP-3" edge="1">
                    <mxGeometry relative="1" as="geometry">
                        <mxPoint x="100" y="160" as="targetPoint"/>
                    </mxGeometry>
                </mxCell>
                <mxCell id="x0QyBqVEStz6KSpzD9wP-2" value="List" style="rounded=0;whiteSpace=wrap;html=1;fontSize=16;fontStyle=1;align=center;" parent="x0QyBqVEStz6KSpzD9wP-1" vertex="1">
                    <mxGeometry x="40" y="40" width="120" height="40" as="geometry"/>
                </mxCell>
                <mxCell id="x0QyBqVEStz6KSpzD9wP-3" value="Scrollable Rect" style="rounded=0;whiteSpace=wrap;html=1;fontSize=16;fontStyle=0;align=center;" parent="x0QyBqVEStz6KSpzD9wP-1" vertex="1">
                    <mxGeometry x="160" y="120" width="120" height="30" as="geometry"/>
                </mxCell>
                <mxCell id="ftFoRjAZkLuRc7tbHXId-0" value="Visible Rect&lt;br&gt;(Intersection Observer API)" style="rounded=0;whiteSpace=wrap;html=1;fontSize=16;fontStyle=0;align=center;" parent="x0QyBqVEStz6KSpzD9wP-1" vertex="1">
                    <mxGeometry x="160" y="200" width="200" height="60" as="geometry"/>
                </mxCell>
                <mxCell id="JHD3koMrQDyXabzxUQS9-0" value="Pre-fading Rect" style="rounded=0;whiteSpace=wrap;html=1;fontSize=16;fontStyle=0;align=center;" parent="x0QyBqVEStz6KSpzD9wP-1" vertex="1">
                    <mxGeometry x="160" y="300" width="130" height="30" as="geometry"/>
                </mxCell>
                <mxCell id="JHD3koMrQDyXabzxUQS9-4" value="Post-fading Rect" style="rounded=0;whiteSpace=wrap;html=1;fontSize=16;fontStyle=0;align=center;" parent="x0QyBqVEStz6KSpzD9wP-1" vertex="1">
                    <mxGeometry x="160" y="354" width="130" height="30" as="geometry"/>
                </mxCell>
                <mxCell id="JHD3koMrQDyXabzxUQS9-8" value="" style="edgeStyle=orthogonalEdgeStyle;rounded=0;orthogonalLoop=1;jettySize=auto;html=1;fontSize=16;strokeColor=#FFFFFF;strokeWidth=2;align=center;entryX=0;entryY=0.5;entryDx=0;entryDy=0;exitX=0.5;exitY=1;exitDx=0;exitDy=0;" parent="x0QyBqVEStz6KSpzD9wP-1" source="x0QyBqVEStz6KSpzD9wP-2" target="ftFoRjAZkLuRc7tbHXId-0" edge="1">
                    <mxGeometry relative="1" as="geometry">
                        <mxPoint x="60" y="190" as="sourcePoint"/>
                        <mxPoint x="120" y="245" as="targetPoint"/>
                    </mxGeometry>
                </mxCell>
                <mxCell id="JHD3koMrQDyXabzxUQS9-9" value="" style="edgeStyle=orthogonalEdgeStyle;rounded=0;orthogonalLoop=1;jettySize=auto;html=1;fontSize=16;strokeColor=#FFFFFF;strokeWidth=2;align=center;entryX=0;entryY=0.5;entryDx=0;entryDy=0;exitX=0.5;exitY=1;exitDx=0;exitDy=0;" parent="x0QyBqVEStz6KSpzD9wP-1" source="x0QyBqVEStz6KSpzD9wP-2" target="JHD3koMrQDyXabzxUQS9-0" edge="1">
                    <mxGeometry relative="1" as="geometry">
                        <mxPoint x="110" y="90" as="sourcePoint"/>
                        <mxPoint x="170" y="240" as="targetPoint"/>
                    </mxGeometry>
                </mxCell>
                <mxCell id="JHD3koMrQDyXabzxUQS9-10" value="" style="edgeStyle=orthogonalEdgeStyle;rounded=0;orthogonalLoop=1;jettySize=auto;html=1;fontSize=16;strokeColor=#FFFFFF;strokeWidth=2;align=center;entryX=0;entryY=0.5;entryDx=0;entryDy=0;exitX=0.5;exitY=1;exitDx=0;exitDy=0;" parent="x0QyBqVEStz6KSpzD9wP-1" source="x0QyBqVEStz6KSpzD9wP-2" target="JHD3koMrQDyXabzxUQS9-4" edge="1">
                    <mxGeometry relative="1" as="geometry">
                        <mxPoint x="110" y="90" as="sourcePoint"/>
                        <mxPoint x="170" y="345" as="targetPoint"/>
                    </mxGeometry>
                </mxCell>
                <mxCell id="JHD3koMrQDyXabzxUQS9-11" value="Pre-fading Edge" style="rounded=0;whiteSpace=wrap;html=1;fontSize=16;fontStyle=0;align=center;" parent="x0QyBqVEStz6KSpzD9wP-1" vertex="1">
                    <mxGeometry x="160" y="410" width="130" height="30" as="geometry"/>
                </mxCell>
                <mxCell id="JHD3koMrQDyXabzxUQS9-12" value="Post-fading Edge" style="rounded=0;whiteSpace=wrap;html=1;fontSize=16;fontStyle=0;align=center;" parent="x0QyBqVEStz6KSpzD9wP-1" vertex="1">
                    <mxGeometry x="160" y="464" width="130" height="30" as="geometry"/>
                </mxCell>
                <mxCell id="JHD3koMrQDyXabzxUQS9-13" value="" style="edgeStyle=orthogonalEdgeStyle;rounded=0;orthogonalLoop=1;jettySize=auto;html=1;fontSize=16;strokeColor=#FFFFFF;strokeWidth=2;align=center;entryX=0;entryY=0.5;entryDx=0;entryDy=0;exitX=0.5;exitY=1;exitDx=0;exitDy=0;" parent="x0QyBqVEStz6KSpzD9wP-1" source="x0QyBqVEStz6KSpzD9wP-2" target="JHD3koMrQDyXabzxUQS9-11" edge="1">
                    <mxGeometry relative="1" as="geometry">
                        <mxPoint x="110" y="90" as="sourcePoint"/>
                        <mxPoint x="170" y="399" as="targetPoint"/>
                    </mxGeometry>
                </mxCell>
                <mxCell id="JHD3koMrQDyXabzxUQS9-14" value="" style="edgeStyle=orthogonalEdgeStyle;rounded=0;orthogonalLoop=1;jettySize=auto;html=1;fontSize=16;strokeColor=#FFFFFF;strokeWidth=2;align=center;entryX=0;entryY=0.5;entryDx=0;entryDy=0;exitX=0.5;exitY=1;exitDx=0;exitDy=0;" parent="x0QyBqVEStz6KSpzD9wP-1" source="x0QyBqVEStz6KSpzD9wP-2" target="JHD3koMrQDyXabzxUQS9-12" edge="1">
                    <mxGeometry relative="1" as="geometry">
                        <mxPoint x="110" y="90" as="sourcePoint"/>
                        <mxPoint x="170" y="455" as="targetPoint"/>
                    </mxGeometry>
                </mxCell>
                <mxCell id="JHD3koMrQDyXabzxUQS9-15" value="" style="edgeStyle=orthogonalEdgeStyle;rounded=0;orthogonalLoop=1;jettySize=auto;html=1;fontSize=16;strokeColor=#FFFFFF;strokeWidth=2;align=center;entryX=0;entryY=0.5;entryDx=0;entryDy=0;" parent="x0QyBqVEStz6KSpzD9wP-1" source="JHD3koMrQDyXabzxUQS9-16" target="JHD3koMrQDyXabzxUQS9-17" edge="1">
                    <mxGeometry relative="1" as="geometry">
                        <mxPoint x="460" y="160" as="targetPoint"/>
                    </mxGeometry>
                </mxCell>
                <mxCell id="JHD3koMrQDyXabzxUQS9-16" value="List Item" style="rounded=0;whiteSpace=wrap;html=1;fontSize=16;fontStyle=1;align=center;" parent="x0QyBqVEStz6KSpzD9wP-1" vertex="1">
                    <mxGeometry x="400" y="40" width="120" height="40" as="geometry"/>
                </mxCell>
                <mxCell id="JHD3koMrQDyXabzxUQS9-17" value="Rect&lt;br&gt;(Resize Observer API)" style="rounded=0;whiteSpace=wrap;html=1;fontSize=16;fontStyle=0;align=center;" parent="x0QyBqVEStz6KSpzD9wP-1" vertex="1">
                    <mxGeometry x="520" y="120" width="200" height="40" as="geometry"/>
                </mxCell>
                <mxCell id="JHD3koMrQDyXabzxUQS9-29" value="" style="edgeStyle=orthogonalEdgeStyle;rounded=0;orthogonalLoop=1;jettySize=auto;html=1;fontSize=16;strokeColor=#FFFFFF;strokeWidth=2;align=center;entryX=0;entryY=0.5;entryDx=0;entryDy=0;" parent="x0QyBqVEStz6KSpzD9wP-1" source="JHD3koMrQDyXabzxUQS9-30" target="JHD3koMrQDyXabzxUQS9-31" edge="1">
                    <mxGeometry relative="1" as="geometry">
                        <mxPoint x="860" y="160" as="targetPoint"/>
                    </mxGeometry>
                </mxCell>
                <mxCell id="JHD3koMrQDyXabzxUQS9-30" value="Global" style="rounded=0;whiteSpace=wrap;html=1;fontSize=16;fontStyle=1;align=center;" parent="x0QyBqVEStz6KSpzD9wP-1" vertex="1">
                    <mxGeometry x="800" y="40" width="120" height="40" as="geometry"/>
                </mxCell>
                <mxCell id="JHD3koMrQDyXabzxUQS9-31" value="Determined Item Rect Map&lt;br&gt;Item Key - Item Rect&lt;br&gt;(cache, update, delete)" style="rounded=0;whiteSpace=wrap;html=1;fontSize=16;fontStyle=0;align=center;" parent="x0QyBqVEStz6KSpzD9wP-1" vertex="1">
                    <mxGeometry x="920" y="120" width="280" height="60" as="geometry"/>
                </mxCell>
                <mxCell id="0vwMVTsQ_EHc4u5rn4e0-1" value="Rendered List Items&lt;br&gt;(add, remove, update)" style="rounded=0;whiteSpace=wrap;html=1;fontSize=16;fontStyle=0;align=center;" parent="x0QyBqVEStz6KSpzD9wP-1" vertex="1">
                    <mxGeometry x="160" y="520" width="150" height="70" as="geometry"/>
                </mxCell>
                <mxCell id="0vwMVTsQ_EHc4u5rn4e0-3" value="" style="edgeStyle=orthogonalEdgeStyle;rounded=0;orthogonalLoop=1;jettySize=auto;html=1;fontSize=16;strokeColor=#FFFFFF;strokeWidth=2;align=center;entryX=0;entryY=0.5;entryDx=0;entryDy=0;exitX=0.5;exitY=1;exitDx=0;exitDy=0;" parent="x0QyBqVEStz6KSpzD9wP-1" source="x0QyBqVEStz6KSpzD9wP-2" target="0vwMVTsQ_EHc4u5rn4e0-1" edge="1">
                    <mxGeometry relative="1" as="geometry">
                        <mxPoint x="110" y="90" as="sourcePoint"/>
                        <mxPoint x="170" y="489" as="targetPoint"/>
                    </mxGeometry>
                </mxCell>
            </root>
        </mxGraphModel>
    </diagram>
    <diagram id="CyCC5MLyhUJpo1gqEWJ1" name="ScrollManager">
        <mxGraphModel dx="994" dy="718" grid="1" gridSize="10" guides="1" tooltips="1" connect="1" arrows="1" fold="1" page="1" pageScale="1" pageWidth="1654" pageHeight="1169" math="0" shadow="0">
            <root>
                <mxCell id="VxbFxP3aWwmdu7VYx9tR-0"/>
                <mxCell id="VxbFxP3aWwmdu7VYx9tR-1" parent="VxbFxP3aWwmdu7VYx9tR-0"/>
                <mxCell id="UC_OOW98afqYL73ftp78-0" value="" style="edgeStyle=orthogonalEdgeStyle;rounded=0;orthogonalLoop=1;jettySize=auto;html=1;fontSize=16;strokeColor=#FFFFFF;strokeWidth=2;align=center;entryX=0;entryY=0.5;entryDx=0;entryDy=0;" parent="VxbFxP3aWwmdu7VYx9tR-1" source="UC_OOW98afqYL73ftp78-1" target="UC_OOW98afqYL73ftp78-2" edge="1">
                    <mxGeometry relative="1" as="geometry">
                        <mxPoint x="100" y="160" as="targetPoint"/>
                    </mxGeometry>
                </mxCell>
                <mxCell id="UC_OOW98afqYL73ftp78-1" value="ScrollManager" style="rounded=0;whiteSpace=wrap;html=1;fontSize=16;fontStyle=1;align=center;" parent="VxbFxP3aWwmdu7VYx9tR-1" vertex="1">
                    <mxGeometry x="40" y="40" width="120" height="40" as="geometry"/>
                </mxCell>
                <mxCell id="UC_OOW98afqYL73ftp78-2" value="Scroll Collecting" style="rounded=0;whiteSpace=wrap;html=1;fontSize=16;fontStyle=0;align=center;" parent="VxbFxP3aWwmdu7VYx9tR-1" vertex="1">
                    <mxGeometry x="160" y="120" width="130" height="30" as="geometry"/>
                </mxCell>
                <mxCell id="UC_OOW98afqYL73ftp78-3" value="Scroll Queue Scheduling" style="rounded=0;whiteSpace=wrap;html=1;fontSize=16;fontStyle=0;align=center;" parent="VxbFxP3aWwmdu7VYx9tR-1" vertex="1">
                    <mxGeometry x="160" y="180" width="190" height="30" as="geometry"/>
                </mxCell>
                <mxCell id="UC_OOW98afqYL73ftp78-4" value="Cancellable" style="rounded=0;whiteSpace=wrap;html=1;fontSize=16;fontStyle=0;align=center;" parent="VxbFxP3aWwmdu7VYx9tR-1" vertex="1">
                    <mxGeometry x="160" y="240" width="100" height="30" as="geometry"/>
                </mxCell>
                <mxCell id="UC_OOW98afqYL73ftp78-6" value="" style="edgeStyle=orthogonalEdgeStyle;rounded=0;orthogonalLoop=1;jettySize=auto;html=1;fontSize=16;strokeColor=#FFFFFF;strokeWidth=2;align=center;entryX=0;entryY=0.5;entryDx=0;entryDy=0;exitX=0.5;exitY=1;exitDx=0;exitDy=0;" parent="VxbFxP3aWwmdu7VYx9tR-1" source="UC_OOW98afqYL73ftp78-1" target="UC_OOW98afqYL73ftp78-3" edge="1">
                    <mxGeometry relative="1" as="geometry">
                        <mxPoint x="60" y="190" as="sourcePoint"/>
                        <mxPoint x="120" y="245" as="targetPoint"/>
                    </mxGeometry>
                </mxCell>
                <mxCell id="UC_OOW98afqYL73ftp78-7" value="" style="edgeStyle=orthogonalEdgeStyle;rounded=0;orthogonalLoop=1;jettySize=auto;html=1;fontSize=16;strokeColor=#FFFFFF;strokeWidth=2;align=center;entryX=0;entryY=0.5;entryDx=0;entryDy=0;exitX=0.5;exitY=1;exitDx=0;exitDy=0;" parent="VxbFxP3aWwmdu7VYx9tR-1" source="UC_OOW98afqYL73ftp78-1" target="UC_OOW98afqYL73ftp78-4" edge="1">
                    <mxGeometry relative="1" as="geometry">
                        <mxPoint x="110" y="90" as="sourcePoint"/>
                        <mxPoint x="170" y="240" as="targetPoint"/>
                    </mxGeometry>
                </mxCell>
                <mxCell id="UC_OOW98afqYL73ftp78-15" value="Scroll Animation" style="rounded=0;whiteSpace=wrap;html=1;fontSize=16;fontStyle=0;align=center;" parent="VxbFxP3aWwmdu7VYx9tR-1" vertex="1">
                    <mxGeometry x="160" y="300" width="130" height="30" as="geometry"/>
                </mxCell>
                <mxCell id="UC_OOW98afqYL73ftp78-16" value="" style="edgeStyle=orthogonalEdgeStyle;rounded=0;orthogonalLoop=1;jettySize=auto;html=1;fontSize=16;strokeColor=#FFFFFF;strokeWidth=2;align=center;entryX=0;entryY=0.5;entryDx=0;entryDy=0;exitX=0.5;exitY=1;exitDx=0;exitDy=0;" parent="VxbFxP3aWwmdu7VYx9tR-1" source="UC_OOW98afqYL73ftp78-1" target="UC_OOW98afqYL73ftp78-15" edge="1">
                    <mxGeometry relative="1" as="geometry">
                        <mxPoint x="110" y="90" as="sourcePoint"/>
                        <mxPoint x="170" y="265" as="targetPoint"/>
                    </mxGeometry>
                </mxCell>
            </root>
        </mxGraphModel>
    </diagram>
    <diagram id="E2n_4e7D9gGidMqgXCPX" name="DOM Dimensions">
        <mxGraphModel dx="994" dy="718" grid="1" gridSize="10" guides="1" tooltips="1" connect="1" arrows="1" fold="1" page="1" pageScale="1" pageWidth="1169" pageHeight="1654" math="0" shadow="0">
            <root>
                <mxCell id="s7xU1mBEx2m19rI7QKQN-0"/>
                <mxCell id="s7xU1mBEx2m19rI7QKQN-1" parent="s7xU1mBEx2m19rI7QKQN-0"/>
                <mxCell id="nNOWmA2X2Hp4h-57siMy-9" value="" style="rounded=0;whiteSpace=wrap;html=1;fontSize=16;strokeWidth=20;align=center;" parent="s7xU1mBEx2m19rI7QKQN-1" vertex="1">
                    <mxGeometry x="120" y="120" width="600" height="520" as="geometry"/>
                </mxCell>
                <mxCell id="yYXVXnEp2oXAaOiORM76-7" value="" style="rounded=0;whiteSpace=wrap;html=1;fontSize=16;fontColor=#3399FF;fillColor=none;strokeWidth=20;strokeColor=#FFFF66;" parent="s7xU1mBEx2m19rI7QKQN-1" vertex="1">
                    <mxGeometry x="240" y="350" width="240" height="180" as="geometry"/>
                </mxCell>
                <mxCell id="yYXVXnEp2oXAaOiORM76-2" value="" style="rounded=0;whiteSpace=wrap;html=1;fontSize=16;fontColor=#3399FF;fillColor=none;strokeWidth=20;strokeColor=#00CCCC;" parent="s7xU1mBEx2m19rI7QKQN-1" vertex="1">
                    <mxGeometry x="260" y="370" width="200" height="140" as="geometry"/>
                </mxCell>
                <mxCell id="s7xU1mBEx2m19rI7QKQN-5" value="" style="rounded=0;whiteSpace=wrap;html=1;strokeColor=#C73500;fontColor=#000000;fontSize=16;strokeWidth=20;fillColor=none;" parent="s7xU1mBEx2m19rI7QKQN-1" vertex="1">
                    <mxGeometry x="280" y="390" width="160" height="100" as="geometry"/>
                </mxCell>
                <mxCell id="s7xU1mBEx2m19rI7QKQN-4" value="&lt;font style=&quot;font-size: 16px&quot;&gt;&lt;b&gt;Content&lt;/b&gt;&lt;br&gt;&lt;font color=&quot;#3399ff&quot;&gt;width * height&lt;/font&gt;&lt;br&gt;&lt;/font&gt;" style="rounded=0;whiteSpace=wrap;html=1;fillColor=#f5f5f5;strokeColor=#666666;fontSize=16;fontColor=#000000;" parent="s7xU1mBEx2m19rI7QKQN-1" vertex="1">
                    <mxGeometry x="290" y="400" width="140" height="80" as="geometry"/>
                </mxCell>
                <mxCell id="yYXVXnEp2oXAaOiORM76-1" value="padding" style="text;html=1;strokeColor=none;fillColor=none;align=center;verticalAlign=middle;whiteSpace=wrap;rounded=0;fontSize=16;fontColor=#000000;" parent="s7xU1mBEx2m19rI7QKQN-1" vertex="1">
                    <mxGeometry x="330" y="380" width="60" height="20" as="geometry"/>
                </mxCell>
                <mxCell id="yYXVXnEp2oXAaOiORM76-3" value="border" style="text;html=1;strokeColor=none;fillColor=none;align=center;verticalAlign=middle;whiteSpace=wrap;rounded=0;fontSize=16;fontColor=#000000;" parent="s7xU1mBEx2m19rI7QKQN-1" vertex="1">
                    <mxGeometry x="330" y="360" width="60" height="20" as="geometry"/>
                </mxCell>
                <mxCell id="yYXVXnEp2oXAaOiORM76-8" value="margin" style="text;html=1;strokeColor=none;fillColor=none;align=center;verticalAlign=middle;whiteSpace=wrap;rounded=0;fontSize=16;fontColor=#000000;" parent="s7xU1mBEx2m19rI7QKQN-1" vertex="1">
                    <mxGeometry x="330" y="340" width="60" height="20" as="geometry"/>
                </mxCell>
                <mxCell id="nNOWmA2X2Hp4h-57siMy-1" value="" style="endArrow=none;html=1;fontSize=16;fontColor=#FF6666;fillColor=#e51400;strokeColor=#C73500;" parent="s7xU1mBEx2m19rI7QKQN-1" edge="1">
                    <mxGeometry width="50" height="50" relative="1" as="geometry">
                        <mxPoint x="440" y="380" as="sourcePoint"/>
                        <mxPoint x="500" y="380" as="targetPoint"/>
                    </mxGeometry>
                </mxCell>
                <mxCell id="nNOWmA2X2Hp4h-57siMy-2" value="" style="endArrow=none;html=1;fontSize=16;fontColor=#FF6666;fillColor=#e51400;strokeColor=#C73500;" parent="s7xU1mBEx2m19rI7QKQN-1" edge="1">
                    <mxGeometry width="50" height="50" relative="1" as="geometry">
                        <mxPoint x="440" y="499" as="sourcePoint"/>
                        <mxPoint x="500" y="499" as="targetPoint"/>
                    </mxGeometry>
                </mxCell>
                <mxCell id="nNOWmA2X2Hp4h-57siMy-0" value="" style="endArrow=classic;startArrow=classic;html=1;fillColor=#e51400;strokeColor=#00FF00;" parent="s7xU1mBEx2m19rI7QKQN-1" edge="1">
                    <mxGeometry width="50" height="50" relative="1" as="geometry">
                        <mxPoint x="500" y="500" as="sourcePoint"/>
                        <mxPoint x="500" y="380" as="targetPoint"/>
                    </mxGeometry>
                </mxCell>
                <mxCell id="nNOWmA2X2Hp4h-57siMy-4" value="clientHeight" style="text;html=1;strokeColor=none;fillColor=none;align=center;verticalAlign=middle;whiteSpace=wrap;rounded=0;fontSize=16;fontColor=#3399FF;" parent="s7xU1mBEx2m19rI7QKQN-1" vertex="1">
                    <mxGeometry x="500" y="430" width="90" height="20" as="geometry"/>
                </mxCell>
                <mxCell id="nNOWmA2X2Hp4h-57siMy-5" value="" style="endArrow=none;html=1;fontSize=16;fontColor=#FF6666;fillColor=#e51400;strokeColor=#C73500;" parent="s7xU1mBEx2m19rI7QKQN-1" edge="1">
                    <mxGeometry width="50" height="50" relative="1" as="geometry">
                        <mxPoint x="440" y="360" as="sourcePoint"/>
                        <mxPoint x="600" y="360" as="targetPoint"/>
                    </mxGeometry>
                </mxCell>
                <mxCell id="nNOWmA2X2Hp4h-57siMy-6" value="" style="endArrow=none;html=1;fontSize=16;fontColor=#FF6666;fillColor=#e51400;strokeColor=#C73500;" parent="s7xU1mBEx2m19rI7QKQN-1" edge="1">
                    <mxGeometry width="50" height="50" relative="1" as="geometry">
                        <mxPoint x="440" y="519" as="sourcePoint"/>
                        <mxPoint x="600" y="519" as="targetPoint"/>
                    </mxGeometry>
                </mxCell>
                <mxCell id="nNOWmA2X2Hp4h-57siMy-7" value="" style="endArrow=classic;startArrow=classic;html=1;fillColor=#e51400;strokeColor=#00FF00;" parent="s7xU1mBEx2m19rI7QKQN-1" edge="1">
                    <mxGeometry width="50" height="50" relative="1" as="geometry">
                        <mxPoint x="600" y="520" as="sourcePoint"/>
                        <mxPoint x="600" y="360" as="targetPoint"/>
                    </mxGeometry>
                </mxCell>
                <mxCell id="nNOWmA2X2Hp4h-57siMy-8" value="offsetHeight" style="text;html=1;strokeColor=none;fillColor=none;align=center;verticalAlign=middle;whiteSpace=wrap;rounded=0;fontSize=16;fontColor=#3399FF;" parent="s7xU1mBEx2m19rI7QKQN-1" vertex="1">
                    <mxGeometry x="600" y="430" width="90" height="20" as="geometry"/>
                </mxCell>
                <mxCell id="nNOWmA2X2Hp4h-57siMy-10" value="" style="endArrow=classic;startArrow=classic;html=1;fillColor=#e51400;strokeColor=#00FF00;" parent="s7xU1mBEx2m19rI7QKQN-1" edge="1">
                    <mxGeometry width="50" height="50" relative="1" as="geometry">
                        <mxPoint x="300" y="360" as="sourcePoint"/>
                        <mxPoint x="300" y="130" as="targetPoint"/>
                    </mxGeometry>
                </mxCell>
                <mxCell id="nNOWmA2X2Hp4h-57siMy-11" value="offsetTop" style="text;html=1;strokeColor=none;fillColor=none;align=center;verticalAlign=middle;whiteSpace=wrap;rounded=0;fontSize=16;fontColor=#3399FF;" parent="s7xU1mBEx2m19rI7QKQN-1" vertex="1">
                    <mxGeometry x="230" y="230" width="70" height="20" as="geometry"/>
                </mxCell>
                <mxCell id="nNOWmA2X2Hp4h-57siMy-14" value="border" style="text;html=1;strokeColor=none;fillColor=none;align=center;verticalAlign=middle;whiteSpace=wrap;rounded=0;fontSize=16;fontColor=#000000;" parent="s7xU1mBEx2m19rI7QKQN-1" vertex="1">
                    <mxGeometry x="330" y="110" width="60" height="20" as="geometry"/>
                </mxCell>
                <mxCell id="nNOWmA2X2Hp4h-57siMy-15" value="&lt;font color=&quot;#ffffff&quot;&gt;&lt;b&gt;offsetParent&lt;/b&gt;&lt;/font&gt;" style="strokeWidth=1;shadow=0;dashed=0;align=center;html=1;shape=mxgraph.mockup.text.callout;linkText=;textSize=17;textColor=#666666;callDir=NE;callStyle=line;fontSize=17;fontColor=#666666;align=right;verticalAlign=top;strokeColor=#666666;fillColor=none;" parent="s7xU1mBEx2m19rI7QKQN-1" vertex="1">
                    <mxGeometry x="190" y="20" width="200" height="100" as="geometry"/>
                </mxCell>
                <mxCell id="nNOWmA2X2Hp4h-57siMy-16" value="" style="endArrow=classic;startArrow=classic;html=1;fillColor=#e51400;strokeColor=#00FF00;" parent="s7xU1mBEx2m19rI7QKQN-1" edge="1">
                    <mxGeometry width="50" height="50" relative="1" as="geometry">
                        <mxPoint x="210" y="400" as="sourcePoint"/>
                        <mxPoint x="210" y="360" as="targetPoint"/>
                    </mxGeometry>
                </mxCell>
                <mxCell id="nNOWmA2X2Hp4h-57siMy-18" value="clientTop" style="text;html=1;strokeColor=none;fillColor=none;align=center;verticalAlign=middle;whiteSpace=wrap;rounded=0;fontSize=16;fontColor=#3399FF;" parent="s7xU1mBEx2m19rI7QKQN-1" vertex="1">
                    <mxGeometry x="140" y="370" width="70" height="20" as="geometry"/>
                </mxCell>
                <mxCell id="nNOWmA2X2Hp4h-57siMy-19" value="" style="endArrow=none;html=1;fontSize=16;fontColor=#FF6666;fillColor=#e51400;strokeColor=#00FF00;" parent="s7xU1mBEx2m19rI7QKQN-1" edge="1">
                    <mxGeometry width="50" height="50" relative="1" as="geometry">
                        <mxPoint x="210" y="360" as="sourcePoint"/>
                        <mxPoint x="300" y="360" as="targetPoint"/>
                    </mxGeometry>
                </mxCell>
                <mxCell id="nNOWmA2X2Hp4h-57siMy-20" value="" style="endArrow=none;html=1;fontSize=16;fontColor=#FF6666;fillColor=#60a917;strokeColor=#00FF00;" parent="s7xU1mBEx2m19rI7QKQN-1" edge="1">
                    <mxGeometry width="50" height="50" relative="1" as="geometry">
                        <mxPoint x="210" y="400" as="sourcePoint"/>
                        <mxPoint x="300" y="400" as="targetPoint"/>
                    </mxGeometry>
                </mxCell>
                <mxCell id="WTyn8e8wmN3_2_E-jQYa-0" value="" style="verticalLabelPosition=bottom;shadow=0;dashed=0;align=center;html=1;verticalAlign=top;strokeWidth=1;shape=mxgraph.mockup.navigation.scrollBar;strokeColor=#999999;barPos=46.765;fillColor2=#99ddff;strokeColor2=none;direction=north;rounded=1;sketch=1;gradientColor=none;" parent="s7xU1mBEx2m19rI7QKQN-1" vertex="1">
                    <mxGeometry x="690" y="130" width="20" height="500" as="geometry"/>
                </mxCell>
                <mxCell id="WTyn8e8wmN3_2_E-jQYa-1" value="" style="endArrow=classic;startArrow=classic;html=1;fillColor=#e51400;strokeColor=#00FF00;" parent="s7xU1mBEx2m19rI7QKQN-1" edge="1">
                    <mxGeometry width="50" height="50" relative="1" as="geometry">
                        <mxPoint x="544.5" y="360" as="sourcePoint"/>
                        <mxPoint x="544.5" y="30" as="targetPoint"/>
                    </mxGeometry>
                </mxCell>
                <mxCell id="WTyn8e8wmN3_2_E-jQYa-2" value="scrollTop" style="text;html=1;strokeColor=none;fillColor=none;align=center;verticalAlign=middle;whiteSpace=wrap;rounded=0;fontSize=16;fontColor=#3399FF;" parent="s7xU1mBEx2m19rI7QKQN-1" vertex="1">
                    <mxGeometry x="550" y="200" width="70" height="20" as="geometry"/>
                </mxCell>
            </root>
        </mxGraphModel>
    </diagram>
</mxfile>
